<svg width="1920" height="1080" viewBox="0 0 1920 1080" fill="none" xmlns="http://www.w3.org/2000/svg">
<mask id="mask0_103_68" style="mask-type:luminance" maskUnits="userSpaceOnUse" x="0" y="0" width="1920" height="1080">
<path d="M1920 0H0V1080H1920V0Z" fill="white"/>
</mask>
<g mask="url(#mask0_103_68)">
<path d="M51.4301 1005.55C51.2091 1005.66 50.9891 1005.77 50.7681 1005.88C51.4851 1006.07 51.1971 1005.86 51.4301 1005.55Z" fill="black"/>
<path d="M150.033 896.029C138.786 891.373 121.036 885.244 103.71 888.088C70.8901 893.475 47.8131 904.277 39.5191 933.75C31.0181 963.958 47.1201 999.101 74.9231 977.757C75.7481 983.546 67.7231 992.681 64.6661 996.617C49.4411 1016.22 28.2341 1018.73 -3.8269 1017.13C-3.8269 1038.09 -3.8269 1059.05 -3.8269 1080C58.1521 1080 120.15 1080 182.129 1080C185.879 1074.27 189.629 1068.53 193.379 1062.79C200.47 1050.79 205.965 1036.61 209.261 1021.1C222.061 960.897 189.309 912.287 150.033 896.029Z" fill="black"/>
<path d="M141.43 890.404C141.099 890.294 140.768 890.183 140.437 890.073C141.034 890.741 140.429 890.318 141.43 890.735C141.43 890.625 141.43 890.515 141.43 890.404Z" fill="black"/>
<path d="M58.3792 999.927C58.9682 1000.23 58.4631 1000.25 59.0411 999.927C58.8201 999.927 58.5992 999.927 58.3792 999.927Z" fill="black"/>
<path d="M94.4451 886.765C94.0041 886.875 93.5631 886.986 93.1221 887.096C94.3941 887.588 94.2111 887.065 94.4451 886.765Z" fill="black"/>
<path d="M86.5042 888.419C86.9452 888.529 87.3862 888.64 87.8282 888.75C87.8282 888.64 87.8282 888.529 87.8282 888.419C87.3862 888.419 86.9452 888.419 86.5042 888.419Z" fill="black"/>
<path d="M56.394 1002.24C57.461 1001.52 57.181 1001.64 57.387 1000.92C57.055 1001.36 56.724 1001.8 56.394 1002.24Z" fill="black"/>
<path d="M70.291 270.993C70.07 270.993 69.85 270.993 69.629 270.993C61.585 281.728 47.14 286 37.864 295.478C47.234 292.068 64.557 278.52 70.291 270.993Z" fill="black"/>
<path d="M-3.8269 312.684C-3.8269 313.125 -3.8269 313.566 -3.8269 314.008C1.7081 312.307 6.88409 310.162 11.8881 307.879C5.78409 310.197 -0.0149043 312.021 -3.8269 312.684Z" fill="black"/>
<path d="M37.8641 295.478C37.5331 295.478 37.2021 295.478 36.8711 295.478C36.0151 296.181 34.9041 296.945 33.5981 297.747C34.9041 297.195 36.2111 296.644 37.5321 296.14C37.6431 295.919 37.7541 295.699 37.8641 295.478Z" fill="black"/>
<path d="M11.8882 307.878C19.8482 304.854 28.3252 300.987 33.5982 297.747C26.3702 300.805 19.3182 304.488 11.8882 307.878Z" fill="black"/>
<path d="M48.7831 1007.54C48.5621 1007.54 48.3421 1007.54 48.1211 1007.54C41.4531 1013.23 22.8541 1015.4 18.0111 1015.15C14.5921 1015.37 11.1721 1015.59 7.7541 1015.81C4.8461 1014.62 2.9421 1013.4 -1.8419 1014.49C-2.5039 1014.49 -3.1659 1014.49 -3.8269 1014.49C-3.8269 1014.93 -3.8269 1015.37 -3.8269 1015.81C0.0330956 1016.25 3.8941 1016.69 7.7541 1017.13C20.1451 1018.74 43.2181 1013.04 48.7831 1007.54Z" fill="black"/>
<path d="M1923.23 206.801C1923.23 189.266 1923.23 171.726 1923.23 154.191C1916.96 152.796 1910.93 145.127 1907.35 140.625C1886.83 114.815 1877.89 75.407 1901.06 45.331C1905.49 39.585 1914.83 29.846 1923.23 29.779C1923.23 19.854 1923.23 9.925 1923.23 0C1903.49 0 1883.75 0 1864 0C1859.7 6.727 1855.4 13.457 1851.1 20.184C1842.65 34.426 1836.66 51.108 1832.57 69.485C1827.74 91.18 1831.69 115.756 1838.2 132.353C1852.56 168.962 1877.99 201.577 1923.23 206.801Z" fill="black"/>
<path d="M545.438 1020.77C526.637 1028.03 512.446 1040.15 505.07 1058.82C502.592 1065.1 502.299 1071.81 500.438 1079.01C500.438 1079.34 500.438 1079.67 500.438 1080C509.15 1080 517.865 1080 526.578 1080C526.67 1076.25 530.714 1072.01 532.865 1069.08C539.966 1059.41 549.48 1052.82 563.306 1049.89C589.385 1044.36 623.071 1058.33 623.857 1080C642.164 1080 660.476 1080 678.784 1080C674.522 1033.46 599.34 999.97 545.438 1020.77Z" fill="black"/>
<path d="M78.5631 180.662C104.23 121.969 53.8041 82.791 -3.82688 83.713C-3.82688 94.852 -3.82688 105.994 -3.82688 117.132C15.9181 116.453 29.4191 132.012 22.9741 153.86C19.6971 164.97 8.34712 176.021 -3.49688 178.345C-3.60688 178.566 -3.71788 178.786 -3.82788 179.007C-3.82788 198.196 -3.82788 217.391 -3.82788 236.581C31.8011 232.949 66.5731 208.079 78.5631 180.662Z" fill="black"/>
<path d="M1549 521.471C1546.49 527.137 1545.25 536.119 1545.36 543.64C1546.36 542.535 1546.11 542.445 1546.03 540.331C1546.36 540.331 1546.69 540.331 1547.02 540.331C1546.91 540.772 1546.8 541.213 1546.69 541.655C1547.69 540.591 1547.18 538.7 1547.02 536.692C1547.13 536.692 1547.24 536.692 1547.35 536.692C1548.13 539.992 1549.87 540.64 1552.31 542.317C1552.53 543.309 1552.75 544.302 1552.98 545.295C1554.51 549.583 1557.78 552.032 1559.26 559.192C1559.48 559.302 1559.7 559.413 1559.92 559.523C1557.39 552.355 1554.85 545.184 1552.31 538.016C1551.21 532.501 1550.11 526.985 1549 521.471Z" fill="black"/>
<path d="M1545.03 546.618C1545.14 546.618 1545.25 546.618 1545.36 546.618C1545.49 545.167 1545.62 545.083 1545.03 543.971C1545.03 544.853 1545.03 545.735 1545.03 546.618Z" fill="black"/>
<path d="M1823.97 649.522C1823.97 649.853 1823.97 650.184 1823.97 650.515C1824.08 650.515 1824.19 650.515 1824.3 650.515C1824.19 650.184 1824.08 649.853 1823.97 649.522Z" fill="black"/>
<path d="M1410.03 1050.55C1410.03 1050.44 1410.03 1050.33 1410.03 1050.22C1409.15 1049.89 1408.27 1049.56 1407.39 1049.23C1408.27 1049.67 1409.15 1050.11 1410.03 1050.55Z" fill="black"/>
<path d="M486.21 883.125C486.21 883.015 486.21 882.904 486.21 882.794C485.769 882.794 485.328 882.794 484.886 882.794C485.327 882.904 485.769 883.015 486.21 883.125Z" fill="black"/>
<path d="M1888.16 701.802C1866.09 673.087 1850.62 641.147 1839.52 600.883C1834.09 581.189 1833.88 552.944 1840.84 534.706C1848.77 513.958 1863.34 497.802 1883.2 489.044C1889.37 486.838 1895.55 484.632 1901.73 482.426C1902.06 482.316 1902.39 482.205 1902.72 482.095C1901.44 468.715 1890.8 452.051 1884.19 443.051C1866.76 419.307 1841.95 404.108 1810.07 394.742C1759.48 379.877 1706.52 404.157 1685.33 431.801C1659.45 465.571 1658.1 523.931 1699.89 541.985C1724.81 552.75 1755.18 538.292 1746.87 508.566C1744.82 501.227 1740.31 493.504 1734.63 489.706C1732.63 488.371 1730.38 488.338 1729 486.397C1728.1 483.787 1730.05 480.966 1730.99 479.118C1736.88 467.491 1751.74 457.509 1770.03 463.897C1791.75 471.48 1806.65 501.755 1798.82 533.051C1795.89 544.77 1790.22 555.224 1783.93 563.823C1761.5 594.486 1711.03 607.958 1666.47 588.97C1627.87 572.523 1601.94 539.8 1591.03 495.661C1583.71 466.097 1589.8 428.419 1598.97 405.992C1619.23 356.442 1654.62 324.852 1708.16 308.713C1726.26 303.256 1753.68 298.626 1777.64 302.426C1788.01 304.07 1798.13 304.934 1807.42 307.72C1847.3 319.677 1879.17 340.369 1901.39 369.926C1906.14 377.315 1910.88 384.706 1915.62 392.095C1917.94 396.727 1920.25 401.36 1922.57 405.992C1924.94 402.616 1923.23 378.437 1923.23 372.242C1923.23 341.583 1923.23 310.915 1923.23 280.257C1841.46 279.364 1777.42 214.989 1757.46 151.544C1741.86 101.96 1747.69 40.015 1768.38 0C1618.84 0 1469.25 0 1319.7 0C1314.74 6.948 1309.78 13.898 1304.81 20.846C1290.46 45.037 1280.43 74.126 1279.67 110.846C1279.32 127.237 1282.5 142.83 1286.28 155.515C1301.13 205.325 1329.62 236.854 1375.95 255.111C1402.72 265.658 1446.11 267.084 1475.88 257.758C1499.04 250.5 1517.6 238.844 1534.44 225.332C1554.68 209.1 1577.74 168.6 1562.9 133.016C1554.33 112.455 1537.15 97.253 1516.25 89.009C1490.5 78.856 1458.91 83.262 1445.44 101.252C1437.52 111.822 1432.2 135.445 1444.77 144.928C1449.84 148.75 1455.33 149.629 1462.64 151.546C1463.41 151.546 1464.19 151.546 1464.96 151.546C1464.96 151.215 1464.96 150.884 1464.96 150.553C1462.15 146.868 1458.53 143.218 1457.68 137.649C1456.04 126.91 1471.86 114.014 1483.49 116.473C1495.11 118.932 1504 132.454 1505.99 144.929C1507.53 154.649 1501.15 163.59 1497.38 168.752C1486 184.37 1462.85 195.483 1434.19 189.267C1409.02 183.808 1391.77 168.917 1382.57 147.576C1379.75 141.043 1377.78 133.722 1376.28 126.069C1364.78 67.352 1414.12 31.429 1454.37 19.525C1483.87 10.798 1522.77 17.944 1543.04 29.782C1590.96 57.75 1627.04 124.865 1603.27 201.51C1587.44 252.543 1556.36 293.123 1515.25 318.973C1498.06 329.783 1478.27 338.515 1456.02 344.12C1445.66 346.731 1434.55 347.289 1423.27 349.083C1395.11 353.561 1359.61 346.843 1338.56 340.48C1264.63 318.131 1220.6 268.873 1195.62 197.539C1173.4 134.098 1182.66 50.1 1211.17 0.333C1118.76 0.221 1026.31 0.11 933.894 0C921.631 11.234 910.023 21.175 891.872 26.801C863.677 35.541 828.785 27.138 809.482 15.882C802.588 11.862 790.542 7.104 786.982 0C699.858 0 612.709 0 525.585 0C525.585 0.11 525.585 0.221 525.585 0.331C541.924 41.914 571.826 66.201 617.57 78.419C647.6 86.44 687.44 80.05 714.519 74.118C730.069 71.361 745.623 68.603 761.173 65.846C837.796 50.575 921.195 77.595 953.416 118.456C967.499 136.315 978.439 155.852 985.843 180.662C991.646 200.107 993.843 228.948 989.814 251.802C979.472 310.461 958.778 351.466 917.682 378.861C895.604 393.579 856.964 408.605 820.403 397.39C793.784 389.225 760.088 360.653 773.749 321.287C776.098 314.519 779.341 308.008 783.345 302.758C788.825 295.572 797.475 288.711 807.499 286.214C820.175 283.056 840.172 292.719 837.94 304.743C836.547 312.25 830.587 320.389 826.028 325.258C828.117 334.436 850.15 327.73 854.153 324.927C869.455 314.212 878.212 281.01 865.734 260.405C852.784 239.02 818.11 226.133 784.337 236.251C753.819 245.394 730.767 262.81 715.513 287.207C679.061 345.507 709.324 430.354 753.234 457.942C773.704 470.803 809.716 473.967 815.44 444.707C817.958 431.836 808.464 427.98 806.837 419.891C816.216 417.461 827.7 423.204 833.308 426.509C849.857 436.263 871.007 460.161 865.073 489.377C857.651 525.918 831.14 544.372 793.933 551.583C787.986 552.736 779.457 554.343 772.095 553.237C755.21 550.701 740.607 549.515 727.095 544.303C670.669 522.539 628.976 478.854 610.294 419.229C602.319 393.778 597.007 355.665 603.015 323.273C605.94 307.503 608.654 292.408 613.934 278.935C635.041 225.072 676.142 186.096 730.405 165.111C755.578 155.376 795.563 152.434 824.376 161.14C839.013 165.563 852.271 172.585 863.089 180.993C883.185 196.611 900.908 222.058 908.089 250.147C915.749 280.108 906.042 317.215 888.236 330.551C888.236 330.661 888.236 330.772 888.236 330.882C890.568 330.511 892.772 327.561 894.854 325.919C905.914 317.196 913.267 308.656 920.663 296.14C926.178 286.807 930.65 276.049 933.898 264.375C950.587 204.397 917.525 155.882 883.273 134.338C872.227 127.39 859.548 121.649 845.883 117.463C797.87 102.754 749.564 120.682 712.537 132.353C694.789 137.947 676.896 142.599 657.61 146.912C639.006 151.072 611.618 152.626 591.433 148.897C578.593 146.525 567.296 145.515 556.029 141.948C513.106 128.362 480.558 104.566 458.75 69.816C448.684 53.778 440.993 37.013 434.596 16.875C433.013 11.893 430.413 6.413 430.295 0.331C285.599 0.221 140.864 0.11 -3.8269 0C-3.8269 5.183 -3.8269 10.368 -3.8269 15.551C11.3791 15.502 25.7051 15.408 37.8641 18.529C90.9171 32.144 117.196 66.973 127.864 123.419C131.542 142.88 128.723 167.615 123.893 183.64C108.719 233.988 83.0011 269.266 42.8271 294.486C29.8851 302.611 13.6571 312.558 -3.8269 315.332C-3.8269 399.257 -3.8269 483.208 -3.8269 567.134C-0.807904 574.264 4.0521 581.86 7.0921 589.634C13.1631 605.158 15.5531 621.663 19.0041 640.259C20.2931 647.205 23.1261 659.937 21.9821 667.391C18.8031 688.108 15.5591 706.247 8.7471 722.979C5.2611 731.542 -1.0209 739.842 -3.8269 748.126C-3.8269 773.712 -3.8269 799.305 -3.8269 824.891C-3.7169 824.891 -3.6059 824.891 -3.4959 824.891C2.1281 820.59 7.7551 816.288 13.3791 811.987C26.8841 803.466 41.8621 796.313 58.7101 791.141C98.0731 779.058 148.384 783.825 182.129 797.097C250.817 824.112 300.115 876.251 317.46 954.597C324.423 986.051 318.702 1024.27 309.85 1049.23C305.549 1059.49 301.247 1069.74 296.946 1080C343.706 1080 390.48 1080 437.24 1080C438.545 1068.89 443.083 1057.75 446.836 1048.57C464.021 1006.53 493.246 976.306 538.49 962.538C563.29 954.991 600.078 956.962 624.188 963.531C668.248 975.535 699.966 994.07 721.137 1028.71C729.157 1041.84 736.256 1059.02 736.027 1080C818.85 1080 901.697 1080 984.52 1080C996.761 1080 1009.01 1080 1021.25 1080C1029.76 1074.84 1044.65 1068.61 1059.96 1071.07C1072.9 1073.15 1082.88 1074.67 1091.73 1080C1166.61 1080 1241.51 1080 1316.4 1080C1316.51 1079.78 1316.62 1079.56 1316.73 1079.34C1281.99 1041.67 1246.36 993.083 1254.52 916.215C1250.9 915.529 1244.9 918.273 1240.95 919.193C1230.66 921.597 1207.14 925.29 1194.3 923.164C1183.08 921.305 1171.93 921.833 1161.54 919.524C1134.62 913.536 1111.89 903.804 1091.73 891.068C1051.76 865.821 1021.17 825.262 1005.7 775.59C977.132 683.892 1026.49 599.161 1088.09 572.097C1097.99 567.748 1108.96 564.536 1120.52 561.84C1132.87 558.957 1151.34 559.038 1163.86 561.509C1210.41 570.691 1240.77 590.66 1259.49 627.355C1268.94 645.892 1273.46 676.899 1266.44 701.804C1263.19 713.304 1259.26 724.419 1253.53 733.569C1244.01 748.786 1230.17 759.9 1211.84 766.326C1179.43 777.686 1145.82 761.607 1133.42 741.179C1123.07 724.125 1127.66 697.527 1143.35 689.561C1148.82 686.783 1161.26 685.518 1166.84 689.23C1166.1 692.803 1163.4 696.466 1164.52 701.473C1166.55 710.525 1180.3 713.897 1190.33 709.745C1202.48 704.718 1211.99 688.175 1205.88 670.37C1192.35 630.916 1141.4 629.029 1107.28 650.517C1070.74 673.53 1048.5 733.097 1077.17 782.208C1097.85 817.634 1122.32 833.228 1170.48 841.436C1193.91 845.43 1224.82 834.879 1240.3 828.532C1298.09 804.824 1339.25 760.738 1363.71 703.789C1377.31 672.15 1383.27 631.217 1362.72 602.208C1358.53 596.289 1353.8 589.367 1347.17 585.995C1339.68 589.497 1334.77 594.347 1324.67 596.252C1299.73 600.959 1274.36 573.603 1278.35 549.267C1281.06 532.706 1285.28 522.046 1293.57 511.546C1299.22 504.387 1308.69 496.924 1317.39 493.017C1366.75 470.852 1418.87 506.847 1440.48 535.039C1452.26 550.415 1461.25 568.917 1467.61 589.635C1471.19 601.307 1472.3 614.029 1474.56 627.025C1474.89 632.76 1475.22 638.496 1475.55 644.231C1476.18 648.042 1478.49 661.881 1478.2 664.084C1474.28 693.73 1467.35 717.401 1457.35 740.187C1454.25 747.261 1451.28 755.115 1446.76 761.033C1442.46 763.68 1438.16 766.327 1433.86 768.974C1424.59 775.701 1415.33 782.431 1406.06 789.158C1375.31 813.121 1350.5 845.379 1337.9 887.43C1335.56 895.236 1335.39 904.079 1333.93 912.908C1331.2 929.454 1335.95 950.949 1339.56 962.54C1351.38 1000.59 1371.61 1026.14 1402.42 1044.93C1410.78 1050.02 1420.88 1054.06 1430.88 1057.17C1435.07 1058.16 1439.26 1059.16 1443.45 1060.15C1446.1 1064.01 1448.75 1067.87 1451.4 1071.73C1453.42 1074.33 1457.21 1076.31 1458.01 1080C1516.57 1080 1575.15 1080 1633.71 1080C1635.98 1078.13 1643.52 1059.31 1645.29 1055.19C1662.35 1015.53 1667.13 965.593 1643.97 927.798C1631.27 907.076 1611.77 892.874 1586.07 885.114C1542.92 872.087 1497.05 893.799 1481.18 919.195C1468.64 939.243 1471.33 969.417 1488.46 982.724C1501.46 992.831 1521.35 987.201 1525.85 972.798C1526.07 972.688 1526.29 972.577 1526.51 972.467C1521.21 1006.81 1488.04 1032.58 1446.1 1019.45C1436.38 1016.41 1427.58 1011.22 1420.29 1005.55C1390.04 982.004 1372.62 925.475 1391.18 877.834C1403.77 845.501 1425.75 820.698 1453.38 803.385C1471.19 792.229 1491.18 784.159 1513.6 777.576C1548.89 767.215 1597.28 772.862 1628.09 782.539C1700.45 805.268 1750.28 855.908 1766.73 934.745C1774.15 970.336 1764.75 1015.26 1754.15 1040.3C1750.63 1048.35 1747.1 1056.4 1743.57 1064.45C1741.48 1069.16 1737.12 1074.21 1736.62 1080C1798.82 1080 1861.04 1080 1923.24 1080C1923.24 965.418 1923.24 850.799 1923.24 736.215C1915.01 734.141 1893.74 709.06 1888.16 701.802ZM349.555 749.449C314.098 740.481 286.965 723.985 262.202 704.449C222.053 672.773 193.321 620.234 178.82 562.831C175.61 550.123 175.319 537.252 172.864 523.125C167.367 491.492 168.723 443.117 175.18 413.934C184.488 371.869 197.839 337.532 218.195 307.059C241.377 272.356 277.358 243.802 321.099 229.963C332.162 226.463 343.761 224.311 356.173 222.022C361.467 221.581 366.762 221.14 372.055 220.698C441.698 220.587 491.348 255.012 512.349 303.088C536.477 358.321 516.347 426.015 478.93 452.316C429.859 486.808 356.764 464.896 344.261 411.287C338.046 384.636 354.621 361.256 371.062 353.383C386.016 346.222 403.087 353.396 404.481 368.273C401.684 374.658 396.351 378.835 394.885 386.472C391.817 402.46 410.035 414.843 425.326 411.95C454.141 406.498 469.636 372.922 456.098 341.803C442.041 309.492 399.697 289.531 353.855 303.421C321.312 313.281 296.097 332.247 278.414 357.024C261.23 381.102 248.456 406.798 240.693 440.737C225.748 506.083 254.07 573.318 279.737 609.818C287.284 620.55 295.101 632.094 305.215 640.259C311.051 644.97 316.182 650.733 322.421 655.149C338.397 666.458 372.714 684.742 401.502 677.649C409.223 675.747 413.838 671.196 420.031 668.384C423.066 663.971 418.669 659.551 420.031 652.502C421.376 645.541 426.071 640.035 431.943 637.612C442.517 633.249 453.789 640.339 459.737 644.23C482.401 659.054 492.54 687.702 473.634 714.377C452.609 744.043 400.432 762.317 349.555 749.449ZM593.085 853.346C576.189 866.653 556.836 878.001 532.534 883.787C479.698 896.367 431.916 870.52 416.725 835.809C403.526 805.649 418.616 781.245 439.556 768.971C457.103 758.686 476.989 764.712 484.887 779.559C484.777 779.78 484.666 780 484.556 780.221C475.706 781.905 466.444 784.947 462.056 791.14C460.161 793.815 458.984 798.492 459.74 802.721C463.231 822.262 487.176 829.001 507.718 820.919C543.069 807.012 578.689 747.778 564.961 692.868C560.08 673.343 553.525 656.194 543.454 641.912C526.055 617.237 479.137 579.521 431.616 590.625C421.501 592.989 411.375 596.904 405.807 603.86C402.719 608.271 399.63 612.684 396.542 617.095C383.259 625.35 355.612 614.89 348.233 609.154C336.456 599.998 330.915 576.888 340.292 560.514C354.961 534.899 381.861 519.525 412.755 510.22C421.357 508.455 429.962 506.69 438.564 504.926C443.637 504.485 448.712 504.044 453.785 503.602C558.452 503.423 614.537 560.879 644.373 635.624C649.475 648.405 652.642 662.465 655.623 677.315C670.544 751.649 630.884 823.574 593.085 853.346ZM1251.54 518.823C1227.62 548.815 1171.54 552.78 1150.29 517.5C1147.13 512.254 1143.4 503.287 1145 494.007C1147.09 481.886 1156.81 465.967 1170.14 475.809C1171.5 481.863 1170.1 489.323 1174.45 492.353C1187.81 501.67 1210.76 485.556 1207.87 469.522C1203.26 443.998 1178.27 421.77 1144.01 429.816C1122.56 434.851 1105.99 447.73 1099.67 467.868C1091.57 493.679 1103.98 538.098 1122.17 544.633C1122.28 544.964 1122.39 545.295 1122.5 545.626C1095.91 543.136 1070.2 558.851 1055.33 570.111C1049 574.905 1043.76 582.799 1036.14 585.993C1016.78 594.109 996.54 599.039 979.226 609.155C934.259 635.427 906.084 663.169 884.594 713.052C878.919 726.225 874.806 740.674 871.359 756.398C870.697 762.574 870.035 768.751 869.374 774.927C869.153 781.765 868.933 788.604 868.712 795.442C869.815 803.824 870.918 812.208 872.021 820.589C879.103 848.88 891.496 870.098 913.712 883.126C924.215 889.285 951.604 894.389 959.043 881.472C956.245 876.172 952.148 872.077 950.771 865.259C947.439 848.76 967.664 836.212 983.859 841.105C1006.84 848.047 1017.16 877.349 1008.34 905.958C995.604 947.305 951.05 971.46 895.513 957.576C868.711 950.876 848.495 938.062 829.998 923.164C784.049 886.155 759.61 788.867 783.344 709.745C804.837 638.094 846.116 585.299 903.785 549.929C927.257 535.533 955.019 525.778 985.182 518.164C999.629 515.297 1014.08 512.428 1028.53 509.561C1029.6 508.679 1027.87 490.786 1027.87 485.737C1027.87 469.271 1031.68 455.351 1036.8 443.384C1049.87 412.813 1073.07 390.04 1104.63 377.869C1112.46 375.994 1120.29 374.119 1128.12 372.244C1131.87 371.913 1135.62 371.582 1139.37 371.251C1197.76 371.304 1234.76 391.625 1256.84 427.832C1274.74 457.198 1271.22 494.15 1251.54 518.823ZM1810.4 684.265C1780.71 708.11 1738.71 735.675 1680.03 724.633C1669.36 722.625 1658.65 720.348 1649.26 716.692C1579.17 689.386 1524.86 617.514 1548.67 516.177C1548.78 516.177 1548.89 516.177 1549 516.177C1551.32 525.661 1553.64 535.149 1555.95 544.633C1561.73 561.185 1569.83 575.286 1579.45 587.979C1599.22 614.067 1630.66 633.357 1667.13 642.575C1715.25 654.738 1757.02 636.624 1783.6 615.773C1790.03 610.731 1799.24 603.865 1802.79 596.251C1803.12 596.03 1803.45 595.81 1803.79 595.589C1801.28 602.367 1790.98 608.19 1790.22 614.449C1790.33 614.449 1790.44 614.449 1790.55 614.449C1790.91 612.798 1793.49 611.138 1795.18 610.478C1798.55 609.46 1805.82 613.449 1807.09 616.103C1807.68 616.967 1807.53 616.38 1806.76 617.096C1807.21 617.884 1815.5 623.815 1817.35 626.361C1826.49 638.942 1827.15 653.833 1822.98 666.729C1822.98 666.839 1822.98 666.95 1822.98 667.06C1823.2 667.17 1823.42 667.281 1823.64 667.391C1827.81 664.283 1834.84 659.343 1836.21 653.825C1836.38 653.004 1836.32 652.096 1836.11 651.142C1835.41 649.449 1834.72 647.755 1834.03 646.062C1832.66 643.502 1831.03 641.036 1830.26 639.267C1825.8 629.128 1820.11 616.139 1819.67 603.201C1819.78 603.201 1819.89 603.201 1820 603.201C1822.13 615.828 1826.81 628.166 1831.25 639.267C1832.18 641.532 1833.1 643.797 1834.03 646.062C1834.95 647.774 1835.75 649.526 1836.11 651.142C1836.47 652.036 1836.84 652.931 1837.21 653.825C1832.14 665.599 1819.96 676.591 1810.4 684.265Z" fill="black"/>
<path d="M1789.56 614.449C1789.45 614.78 1789.34 615.111 1789.22 615.442C1789.69 614.781 1789.48 614.934 1789.56 614.449Z" fill="black"/>
<path d="M1923.23 549.596C1922.9 549.596 1922.57 549.596 1922.24 549.596C1919.3 556.558 1913.79 567.911 1916.28 578.383C1918.27 583.897 1920.25 589.413 1922.24 594.927C1924.19 593.665 1923.23 586.718 1923.23 583.677C1923.23 572.317 1923.23 560.955 1923.23 549.596Z" fill="black"/>
<path d="M1413.01 1052.21C1413.56 1052.54 1414.11 1052.87 1414.67 1053.2C1414.01 1052.33 1414.3 1052.54 1413.01 1052.21Z" fill="black"/>
<path d="M1411.69 1051.54C1411.69 1051.43 1411.69 1051.32 1411.69 1051.21C1411.25 1051.1 1410.81 1050.99 1410.37 1050.88C1410.81 1051.1 1411.25 1051.32 1411.69 1051.54Z" fill="black"/>
<path d="M1435.51 1062.46C1435.51 1062.35 1435.51 1062.24 1435.51 1062.13C1434.96 1062.02 1434.41 1061.91 1433.86 1061.8C1434.41 1062.02 1434.96 1062.24 1435.51 1062.46Z" fill="black"/>
<path d="M366.761 750.11C366.761 750 366.761 749.889 366.761 749.779C356.284 747.573 345.804 745.367 335.327 743.161C341.294 746.871 359.093 749.719 366.761 750.11Z" fill="black"/>
<path d="M484.555 882.794C484.555 882.684 484.555 882.573 484.555 882.463C481.577 881.912 478.599 881.36 475.621 880.809C478.599 881.471 481.578 882.132 484.555 882.794Z" fill="black"/>
<path d="M1455.03 1080C1455.36 1080 1455.7 1080 1456.03 1080C1456.03 1079.89 1456.03 1079.78 1456.03 1079.67C1455.7 1079.45 1455.36 1079.23 1455.03 1079.01C1455.03 1079.34 1455.03 1079.67 1455.03 1080Z" fill="black"/>
<path d="M1428.23 1057.83C1423.93 1056.29 1419.63 1054.74 1415.33 1053.2C1420.66 1058.37 1427.77 1057.5 1436.51 1061.47C1440.49 1063.28 1441.78 1065.9 1445.11 1068.09C1444.56 1066.88 1444.01 1065.66 1443.45 1064.45C1443.68 1064.34 1443.9 1064.23 1444.12 1064.12C1444.45 1064.89 1444.78 1065.66 1445.11 1066.43C1445.33 1066.54 1445.55 1066.66 1445.77 1066.77C1444.78 1065 1443.79 1063.23 1442.79 1061.47C1437.94 1060.26 1433.08 1059.04 1428.23 1057.83Z" fill="black"/>
</g>
</svg>
