<svg width="1926" height="1080" viewBox="0 0 1926 1080" fill="none" xmlns="http://www.w3.org/2000/svg">
<path d="M0.00195312 888.007C0.00195312 915 0.00195312 942.001 0.00195312 968.994C37.926 970.434 35.059 1026.23 0.00195312 1030.15C0.00195312 1046.56 0.00195312 1062.98 0.00195312 1079.4C9.69695 1079.4 19.396 1079.4 29.091 1079.4C55.86 1064.08 84.541 1023.58 65.783 979.903C60.345 967.241 51.297 955.732 40.991 947.839C35.923 944.423 30.853 941.007 25.785 937.592C25.895 937.372 26.005 937.151 26.116 936.931C82.694 924.723 132.454 961.383 146.109 999.407C150.95 1012.89 152.742 1035.93 148.753 1051.97C146.387 1061.48 143.923 1070.76 140.158 1078.74C143.418 1081.07 169.025 1079.48 175.197 1079.4C177.444 1062.47 184.234 1043.16 180.486 1021.88C166.325 941.489 95.367 886.601 0.00195312 888.007Z" fill="black"/>
<path d="M1261.75 189.864C1272.5 194.239 1289.16 199.382 1305.71 196.806C1314.96 195.367 1324.01 194.971 1332.16 192.509C1357.12 184.968 1377.15 169.161 1387.03 146.561C1408.32 97.8547 1379.93 46.1637 1337.45 37.8067C1302.69 30.9707 1264.84 68.5077 1283.57 99.6217C1290.5 111.144 1312.96 121.775 1326.54 108.878C1330.56 105.055 1338.36 91.4307 1329.51 86.7297C1324.54 87.2997 1323.64 91.0217 1319.27 92.0187C1307.65 94.6657 1299.65 79.2937 1306.04 70.5327C1308.55 67.1047 1312.24 65.5927 1316.95 64.2517C1335.2 59.0557 1349.56 70.3467 1356.29 81.1107C1384.74 126.624 1330.22 170.487 1283.9 150.529C1255.17 138.153 1230.03 89.6337 1251.17 51.3607C1267.37 22.0357 1300.07 3.91274 1342.08 0.784735C1309.02 0.674735 1275.96 0.564735 1242.91 0.453735C1237.29 4.75074 1231.67 9.04874 1226.05 13.3457C1213.27 23.6287 1203.22 39.9907 1197.95 57.6407C1193.92 71.1607 1193.69 89.7617 1196.63 104.25C1205.2 146.452 1225.71 175.207 1261.75 189.864Z" fill="black"/>
<path d="M60.825 118.133C101.29 130.372 141.29 113.526 159.332 90.6967C179.497 65.1817 176.789 28.0957 152.39 8.71774C149.105 6.10874 145.115 2.17774 141.151 0.453735C137.405 0.453735 133.658 0.453735 129.912 0.453735C124.624 0.453735 119.334 0.453735 114.045 0.453735C109.106 2.89074 101.979 9.95874 103.798 18.9647C104.834 24.0967 108.429 29.6337 113.384 30.8647C118.357 32.1007 121.159 29.2207 123.962 32.5177C127.562 48.8577 103.306 49.8477 91.2369 45.0787C75.5049 38.8637 63.33 22.0037 63.139 0.453735C52.452 0.453735 41.762 0.453735 31.075 0.453735C33.758 42.1957 55.9689 64.9607 91.8979 73.8377C99.8199 75.7947 112.047 77.4367 121.648 75.4907C131.38 73.5177 138.066 68.3167 146.109 65.9047C141.315 75.0387 135.736 83.2727 127.598 89.0437C89.2139 116.261 36.212 81.8907 17.852 58.3017C11.903 49.5977 5.95195 40.8907 0.00195312 32.1867C0.00195312 46.9497 0.00195312 61.7187 0.00195312 76.4817C5.17995 81.6607 10.36 86.8407 15.539 92.0187C28.864 102.758 42.136 112.48 60.825 118.133Z" fill="black"/>
<path d="M70.411 234.49C94.34 241.636 129.619 240.397 152.39 233.498C201.102 218.74 235.615 192.585 261.805 155.486C283.331 124.994 302.924 72.1297 284.283 24.5837C281.125 16.5297 277.821 6.7057 272.052 1.1137C269.721 -0.919299 260.027 0.452701 256.185 0.452701C241.422 0.452701 226.654 0.452701 211.89 0.452701C217.123 13.4527 223.853 23.2137 227.096 39.7897C231.606 62.8407 224.481 85.3497 217.84 100.613C199.025 143.856 144.541 186.122 76.36 169.369C53.133 163.662 36.391 153.373 20.495 140.61C12.664 134.323 7.904 124.152 0 118.132C0 144.574 0 171.024 0 197.466C7.382 202.865 14.766 208.265 22.148 213.663C36.408 222.63 52.421 229.118 70.411 234.49Z" fill="black"/>
<path d="M637.652 72.1847C673.919 79.1287 697.908 53.2247 702.442 26.2367C704.156 16.0337 700.208 7.98374 698.806 0.783736C687.568 0.673736 676.327 0.563736 665.089 0.452736C665.089 0.562736 665.089 0.672736 665.089 0.783736C674.426 19.5577 672.279 39.6937 653.85 47.3927C650.144 48.9407 644.269 51.3717 637.983 50.0367C627.4 47.7897 624.171 31.5887 636 28.5507C641.735 27.0777 643.879 32.1177 646.908 33.8397C654.164 33.1097 654.868 19.5677 652.197 13.0147C648.044 2.82674 639.2 -0.00826363 624.1 0.453736C621.456 1.55574 618.811 2.65774 616.167 3.75974C610.607 6.65874 605.759 11.6577 602.614 16.9817C585.631 45.7307 615.254 67.8967 637.652 72.1847Z" fill="black"/>
<path d="M594.018 132.347C619.503 147.405 666.209 149.874 697.814 138.628C740.633 123.391 771.727 91.4347 788.718 50.3687C794.455 36.5017 800.366 19.9157 799.957 0.454735C787.177 0.454735 774.392 0.454735 761.612 0.454735C761.86 10.6047 764.227 22.7847 761.943 33.1797C753.564 71.3137 724.303 94.2287 687.236 103.589C639.442 115.658 599.247 85.1397 586.085 55.3267C579.725 40.9217 574.595 17.7207 582.449 0.453735C567.906 0.453735 553.358 0.453735 538.815 0.453735C538.044 6.07274 537.272 11.6937 536.501 17.3127C534.998 26.2607 536.432 38.1857 537.823 45.4107C545.837 87.0247 563.088 114.072 594.018 132.347Z" fill="black"/>
<path d="M1106.72 10.7007C1110.44 8.06974 1116.21 5.22574 1117.62 0.453735C1087.11 0.453735 1056.58 0.453735 1026.06 0.453735C1039.59 24.4287 1083.17 27.3567 1106.72 10.7007Z" fill="black"/>
<path d="M1869.32 63.9208C1860.02 39.9578 1876.72 9.08976 1892.13 1.77576C1892.35 1.44476 1892.57 1.11476 1892.79 0.783759C1889.92 0.673759 1887.06 0.563759 1884.19 0.452759C1870.21 10.8578 1858.11 26.1778 1853.45 45.7398C1843.54 87.3878 1872.57 121.134 1897.74 133.999C1905.09 137.751 1915.06 143.072 1925.18 143.255C1925.18 129.483 1925.18 115.707 1925.18 101.935C1896.21 102.052 1877.43 84.8168 1869.32 63.9208Z" fill="black"/>
<path d="M1818.74 106.894C1806.5 67.7938 1818.81 19.6418 1842.54 1.44476C1842.65 1.11376 1842.76 0.783759 1842.87 0.452759C1824.58 0.452759 1806.29 0.452759 1788 0.452759C1782.7 5.74476 1779.29 14.3588 1775.77 21.2778C1757.78 56.5858 1749.99 107.135 1768.17 148.874C1790.55 200.286 1850.48 235.908 1925.18 234.82C1925.18 218.073 1925.18 201.322 1925.18 184.575C1869.4 188.959 1831.56 147.828 1818.74 106.894Z" fill="black"/>
<path d="M1925.18 18.3037C1925.18 12.3547 1925.18 6.40274 1925.18 0.453735C1917.8 0.453735 1910.42 0.453735 1903.03 0.453735C1889.93 7.57074 1879.6 31.3547 1887.5 50.6987C1893.64 65.7467 1906.38 76.1007 1925.18 78.4657C1925.18 71.7447 1925.18 65.0227 1925.18 58.3017C1902.8 56.9907 1901.57 20.4487 1925.18 18.3037Z" fill="black"/>
<path d="M1805.85 447.37C1793.45 431.424 1759.96 423.253 1734.78 433.156C1725.59 436.771 1718.37 442.024 1711.31 447.701C1687.14 467.141 1679.04 512.064 1693.13 547.861C1707.19 583.605 1733.55 606.733 1776.1 614.304C1799.3 618.433 1821.45 609.273 1834.94 601.412C1844.49 595.845 1852.49 590.506 1860.72 583.892C1888.79 561.333 1915.47 503.688 1900.72 450.346C1885.38 394.886 1846.79 356.029 1774.78 357.128C1770.7 357.569 1766.62 358.01 1762.55 358.45C1755.39 360.103 1748.22 361.756 1741.06 363.408C1712.77 372.289 1687.62 389.257 1670.98 410.017C1658.66 425.398 1647.2 441.412 1640.57 462.576C1625.97 509.163 1649.07 560.505 1674.95 581.247C1681.3 586.338 1687.93 590.356 1695.11 594.8C1695.22 594.8 1695.33 594.8 1695.44 594.8C1693.02 590.393 1690.6 585.985 1688.17 581.578C1682.26 568.064 1677.67 553.564 1674.29 537.614C1660.2 471.272 1695 424.742 1745.69 413.654C1789.49 404.072 1824.5 431.603 1835.93 459.271C1850.24 493.9 1825.4 526.703 1793.62 528.358C1793.51 528.248 1793.4 528.138 1793.29 528.027C1793.29 527.696 1793.29 527.366 1793.29 527.035C1815.16 512.406 1825.68 472.872 1805.85 447.37ZM1769.49 553.811C1786.37 561.079 1810.06 558.737 1825.35 552.158C1855.86 539.031 1871.99 511.96 1880.23 476.46C1882.78 478.032 1881.29 483.796 1881.88 487.368C1884.22 501.538 1880.51 517.314 1876.26 527.696C1863.63 558.5 1840.67 575.658 1803.54 582.238C1796.45 583.493 1787.02 583.772 1779.74 582.238C1741.72 574.232 1700.56 538.656 1714.62 487.037C1716.61 479.727 1719.26 472.964 1722.88 467.203C1727.47 459.908 1734.81 453.631 1743.37 450.344C1746.79 449.573 1750.21 448.801 1753.62 448.03C1779.89 447.678 1795.97 460.655 1795.6 486.375C1791.66 487.063 1787.09 481.608 1784.03 479.764C1776.49 475.218 1763.14 475.198 1755.61 479.764C1722.63 499.76 1743.16 542.476 1769.49 553.811Z" fill="black"/>
<path d="M1300.76 1074.44C1294.48 1075.76 1288.19 1077.09 1281.91 1078.41C1281.91 1078.52 1281.91 1078.63 1281.91 1078.74C1282.13 1078.85 1282.35 1078.96 1282.57 1079.07C1299.98 1079.18 1317.4 1079.29 1334.8 1079.4C1334.91 1079.29 1335.02 1079.18 1335.13 1079.07C1335.13 1078.96 1335.13 1078.85 1335.13 1078.74C1325.43 1075.25 1314.23 1074.22 1300.76 1074.44Z" fill="black"/>
<path d="M1020.11 655.292C1015.04 655.733 1009.97 656.174 1004.9 656.614C993.554 658.747 982.58 660.376 972.839 664.217C929.768 681.2 897.978 711.796 875.654 749.501C866.835 764.397 860.567 782.429 855.49 800.738C851.411 815.446 848.21 837.069 851.193 855.28C853.259 867.894 853.519 878.349 856.812 888.997C871.625 936.885 903.289 970.991 948.047 988.826C960.407 993.751 974.284 995.153 989.367 997.751C996.973 999.061 1008.17 998.205 1014.82 997.09C1021.32 996.319 1027.82 995.547 1034.32 994.776C1055.97 989.911 1075.27 983.114 1091.84 973.29C1133.16 948.784 1164.07 916.936 1179.77 866.85C1190.22 833.506 1186.14 788.097 1174.48 759.418C1151.33 702.484 1101.24 653.842 1020.11 655.292ZM1124.57 906.848C1103.35 936.84 1055.25 969.8 999.614 955.771C977.996 950.32 961.797 941.095 946.724 929.326C921.457 909.596 896.459 858.398 908.71 809.333C914.795 784.964 924.731 766.879 938.13 750.163C949.273 736.26 967.284 726.241 986.392 720.413C992.785 718.463 1000.86 719.349 1007.55 716.777C1055.36 716.712 1079.89 736.328 1097.46 766.361C1105.68 780.421 1110.39 804.859 1103.74 824.539C1100.95 832.793 1097.27 840.652 1092.5 847.017C1074.77 870.671 1029.32 884.403 1006.89 854.62C999.841 845.265 995.775 819.203 1010.19 814.622C1008.61 827.511 1021.32 835.357 1034.98 829.828C1051.74 823.047 1057.03 800.461 1044.9 784.872C1036.61 774.215 1014.55 769.385 997.632 775.286C976.665 782.598 960.21 799.899 955.32 823.217C952.066 838.735 956.042 854.892 960.609 865.529C976.41 902.329 1028.45 929.114 1080.93 909.493C1095.49 904.05 1107.81 897.113 1118.95 888.337C1123.76 884.54 1135.14 870.673 1139.77 869.165C1138.59 884.121 1131.43 897.142 1124.57 906.848Z" fill="black"/>
<path d="M1692.47 174.659C1680.43 144.577 1671.24 96.5718 1679.91 55.6568C1684.29 34.9698 1690.7 17.5648 1698.42 0.783759C1660.85 0.673759 1623.27 0.563759 1585.7 0.452759C1590.87 7.06276 1596.05 13.6758 1601.23 20.2868C1611.6 34.9038 1621.31 51.1358 1628.67 68.5488C1650.9 121.156 1645.51 194.234 1617.43 236.473C1612.97 243.183 1607.84 251.512 1600.9 255.646C1600.57 255.646 1600.24 255.646 1599.91 255.646C1601.12 252.341 1602.33 249.034 1603.55 245.729C1605.42 238.788 1607.29 231.845 1609.17 224.904C1615.23 195.719 1602.96 168.059 1587.35 155.817C1580.77 150.657 1573.19 146.317 1564.21 143.586C1559.58 142.705 1554.95 141.823 1550.33 140.941C1548.56 133.008 1546.8 125.073 1545.04 117.141C1540.48 102.24 1534.88 87.4418 1527.52 74.8288C1516.7 56.2968 1505.08 39.7358 1492.15 23.5918C1484.21 15.8798 1476.28 8.16476 1468.35 0.452759C1448.63 0.452759 1428.9 0.452759 1409.18 0.452759C1413.14 1.88476 1417.11 3.31776 1421.08 4.74976C1427.69 7.83476 1434.3 10.9208 1440.91 14.0058C1464.3 27.8008 1483.82 46.7538 1495.12 72.5148C1510.37 107.246 1507.88 141.555 1493.47 174.989C1471.51 225.93 1430.23 262.325 1369.84 275.149C1343.62 280.718 1310.55 277.709 1286.87 272.174C1226.63 258.097 1180.88 232.099 1152.66 186.228C1141.95 168.806 1129.97 140.162 1135.8 109.538C1141.84 77.8508 1152.74 54.0878 1167.87 31.8568C1173.71 24.5848 1179.55 17.3118 1185.39 10.0398C1187.7 7.50576 1190.02 4.97076 1192.33 2.43676C1192.88 1.88576 1193.43 1.33476 1193.98 0.783759C1187.15 0.673759 1180.32 0.563759 1173.49 0.452759C1170.71 9.16676 1164.62 16.2808 1159.6 22.9308C1142.94 45.0458 1121.29 60.7998 1090.19 68.5478C1047.28 79.2358 1010.32 54.8988 993.994 31.8558C988.499 24.0998 982.349 13.3058 982.424 0.452759C975.042 0.452759 967.658 0.452759 960.277 0.452759C965.02 50.6988 1006.11 101.76 1039.61 124.082C1051.71 132.141 1065.54 138.575 1081.92 142.263C1090.75 144.249 1102.47 144.216 1102.75 134.66C1099.73 132.584 1096.62 133.126 1094.81 129.702C1095.15 128.159 1095.48 126.617 1095.81 125.074C1096.91 124.413 1098.01 123.752 1099.11 123.091C1116.98 122.94 1106.28 144.792 1098.45 149.536C1071.02 166.16 1014.28 140.697 996.97 128.38C977.097 114.242 960.875 93.6438 950.692 69.8708C947.215 61.7528 944.569 52.6088 942.428 43.4258C941.767 39.3488 941.106 35.2718 940.445 31.1948C939.795 29.6538 938.578 29.0078 937.139 28.2198C936.478 28.2198 935.817 28.2198 935.156 28.2198C930.82 32.6138 929.968 45.7228 931.85 54.0038C932.426 56.5348 934.33 60.1118 933.172 63.2598C929.081 69.9008 915.197 59.1888 913.339 57.3098C904.604 48.4818 892.624 17.6538 892.514 0.453759C883.259 0.453759 874.002 0.453759 864.747 0.453759C865.235 15.6528 867.307 34.1428 864.416 49.0458C849.413 126.402 797.571 175.914 730.87 201.765C677.421 222.48 602.768 218.506 558.648 192.179C530.441 175.347 505.482 152.748 492.867 120.448C476.383 78.2418 489.276 34.1538 516.337 12.6858C521.146 8.87076 526.225 3.56076 532.534 1.44676C532.754 1.11576 532.975 0.785759 533.195 0.454759C516.118 0.454759 499.036 0.454759 481.958 0.454759C473.991 8.43776 466.392 29.4538 461.463 41.1138C444.216 81.9168 420.031 166.597 442.952 219.286C453.64 243.854 486.309 261.082 507.081 233.5C510.113 229.474 514.005 225.208 515.676 219.947C516.117 219.616 516.558 219.286 516.998 218.955C520.867 228.471 511.238 246.892 508.073 251.68C487.943 282.135 443.115 282.032 414.194 259.944C398.054 247.617 387.051 229.624 380.477 207.716C364.401 154.137 386.849 88.3808 407.252 53.6748C413.954 42.2758 420.857 30.8998 428.408 20.2878C433.366 14.0078 438.325 7.72576 443.283 1.44576C443.503 1.22576 443.724 1.00476 443.944 0.784759C416.951 0.674759 389.95 0.564759 362.957 0.453759C362.957 0.563759 362.957 0.673759 362.957 0.784759C383.988 47.7068 367.911 121.303 352.049 160.115C321.385 235.142 267.294 284.149 184.125 306.883C151.45 315.815 100.956 319.906 63.471 311.841C39.906 306.771 20.057 299.588 0.333953 291.677C0.223953 291.677 0.113953 291.677 0.00295305 291.677C0.00295305 404.056 0.00295305 516.469 0.00295305 628.848C7.60495 632.704 15.21 636.562 22.812 640.418C46.628 650.678 83.8559 660.06 118.344 653.971C186.298 641.973 233.062 612.317 262.468 562.075C277.254 536.812 281.438 497.562 269.079 465.882C262.987 450.265 254.537 438.133 244.948 426.215C225.376 401.89 178.023 382.424 134.541 395.473C107.223 403.671 84.2879 418.654 68.4289 438.446C59.8129 449.198 42.29 471.368 45.951 493.319C52.378 531.856 70.123 556.267 104.13 566.703C141.129 578.057 168.236 556.448 181.15 534.639C185.369 527.515 190.906 515.527 188.753 502.905C185.193 482.037 175.022 469.423 157.68 462.577C140.087 455.631 116.432 462.155 107.765 472.494C99.1549 482.766 90.97 500.913 102.146 515.467C110.25 526.019 130.18 526.801 136.194 513.814C135.818 507.239 129.463 504.975 126.938 499.93C126.742 489.441 137.686 487.387 146.441 491.005C158.262 495.89 160.495 511.284 152.391 521.747C148.451 526.835 142.052 529.414 135.532 531.994C107.338 543.155 77.7169 534.987 68.0979 511.83C66.4099 507.767 64.0619 500.956 65.1229 494.641C73.7289 443.401 124.125 405.089 182.141 430.512C210.707 443.03 226.046 467.038 232.056 502.574C235.96 525.66 225.086 546.633 216.85 559.761C204.237 579.868 184.44 595.631 159.663 603.395C105.177 620.468 51.2 596.223 27.439 564.719C3.18095 532.556 -9.36805 480.112 9.91895 431.834C29.38 383.12 68.6639 357.709 121.318 341.922C136.602 337.339 164.616 331.886 185.116 335.311C195.252 336.633 205.391 337.956 215.528 339.278C254.142 348.48 281.828 364.303 308.085 385.226C354.251 422.015 383.628 498.072 364.941 581.909C352.575 637.39 332.155 687.505 306.763 730.661C291.303 756.935 275.632 782.516 251.89 800.409C223.804 821.576 178.381 834.271 145.119 808.342C139.424 803.902 131.44 796.376 130.244 787.847C133.401 784.149 146.865 780.779 151.73 777.93C162.482 771.636 172.402 760.368 183.464 755.783C184.235 756.003 185.007 756.224 185.778 756.444C191.896 761.364 177.354 776.422 178.506 780.244C182.644 787.301 199.734 780.239 203.628 777.93C223.048 766.414 232.33 744.652 245.609 727.024C260.246 707.593 279.922 693.363 294.862 674.465C325.083 636.239 362.844 578.474 344.446 507.863C344.115 507.863 343.785 507.863 343.454 507.863C351.505 557.744 326.843 591.457 306.762 619.923C261.995 683.383 204.647 745.497 93.882 739.255C93.882 739.145 93.882 739.035 93.882 738.924C98.95 737.822 104.02 736.72 109.088 735.618C117.922 732.991 125.924 728.648 133.88 725.701C134.321 725.15 134.762 724.599 135.202 724.048C135.202 723.938 135.202 723.828 135.202 723.717C126.206 724.897 115.188 726.392 105.121 728.014C96.5269 728.014 87.931 728.014 79.337 728.014C71.294 727.683 63.249 727.353 55.206 727.022C35.483 723.667 17.276 721.023 0.332953 715.452C0.222953 715.452 0.112953 715.452 0.00195312 715.452C0.00195312 749.056 0.00195312 782.669 0.00195312 816.273C39.336 816.23 73.0599 820.289 101.484 831.479C180.071 862.418 232.057 926.896 249.905 1018.58C253.72 1038.17 250.371 1059.94 249.905 1079.4C362.725 1079.4 475.578 1079.4 588.398 1079.4C591.029 1077.37 593.568 1072.81 595.67 1070.14C608.881 1053.41 621.327 1037.27 630.379 1015.93C664.978 934.378 618.579 845.61 560.631 817.926C533.671 805.046 494.525 802.499 464.769 814.951C446.018 822.797 434.767 835.574 421.796 848.999C421.796 849.109 421.796 849.219 421.796 849.33C428.406 846.025 435.019 842.718 441.63 839.413C456.615 832.881 479.88 824.924 502.122 829.166C538.604 836.123 563.477 856.417 573.854 889.328C576.238 896.889 576.582 904.253 578.151 913.128C580.918 928.775 577.922 947.636 574.184 960.067C568.564 978.761 561.099 995.067 551.375 1009.65C522.423 1053.08 452.843 1095.33 380.806 1066.84C339.391 1050.46 310.61 1021.96 289.241 985.52C279.452 968.827 272.8 948.8 267.755 927.672C255.819 877.69 271.128 820.017 289.902 787.845C307.726 757.303 325.27 728.847 352.047 707.519C388.065 678.831 427.98 654.478 468.404 629.837C494.635 613.848 521.269 599.566 545.094 581.575C576.809 557.626 600.87 527.161 617.156 487.696C623.173 473.116 629.587 450.14 624.428 429.848C617.633 403.121 599.573 383.782 575.505 374.314C565.404 370.34 549.643 368.248 536.499 370.678C499.515 377.515 476.894 394.323 470.387 431.501C463.406 471.388 509.925 508.71 545.424 487.696C555.302 481.849 567.841 468.341 564.266 451.665C563.604 448.575 563.54 445.512 561.622 443.732C561.313 446.74 561.8 451.375 560.63 454.31C556.072 465.743 536.016 482.549 519.31 472.491C499.181 460.371 506.338 432.933 522.946 422.577C553.829 403.319 583.294 423.813 591.372 450.344C592.771 454.937 594.565 462.363 593.355 469.186C589.408 491.452 579.269 508.583 563.935 519.431C539.668 536.6 500.272 536.076 470.387 524.389C428.423 507.98 409.8 486.148 400.639 436.791C397.557 420.185 399.704 399.447 403.945 385.554C408.034 372.158 413.656 359.989 420.473 349.192C452.062 299.161 531.805 270.777 610.545 295.641C659.005 310.944 702.816 348.921 721.283 394.148C728.378 411.523 733.243 438.447 728.225 461.913C726.299 470.918 722.471 478.239 719.961 486.044C719.851 486.044 719.741 486.044 719.63 486.044C718.288 483.985 719.765 475.814 720.291 472.491C721.959 461.966 720.045 449.645 717.977 441.418C714.59 427.94 709.017 415.538 701.78 405.717C698.475 401.861 695.169 398.004 691.863 394.147C691.532 394.147 691.202 394.147 690.871 394.147C692.524 398.223 694.177 402.301 695.829 406.378C699.022 416.601 700.727 427.025 702.771 438.442C710.631 482.355 690.683 524.644 675.335 549.841C635.027 616.011 578.582 646.728 511.708 685.701C492.474 696.91 472.078 705.916 453.199 717.104C405.792 745.201 361.552 773.081 340.148 827.183C332.143 847.419 327.209 880.991 333.206 907.84C343.121 952.227 366.059 990.799 403.615 1007.34C451.452 1028.4 507.217 1014.17 532.533 981.224C539.035 972.763 545.181 963.474 548.73 952.135C561.91 910.034 534.789 875.868 510.055 861.231C489.874 849.289 462.95 846.941 442.29 859.909C413.224 878.153 410.191 924.114 451.876 931.31C469.151 934.292 486.463 915.747 479.643 899.246C478.579 896.671 468.984 884.549 465.098 891.643C465.208 894.948 465.318 898.255 465.429 901.56C463.524 906.961 454.952 907.128 450.223 904.204C440.993 898.498 443.613 883.178 450.884 877.429C471.926 860.791 498.165 878.11 502.121 899.907C504.488 912.947 496.203 923.163 491.213 929.657C468.544 959.155 424.082 960.095 394.359 936.599C373.002 919.715 363.489 878.442 374.525 843.381C385.434 808.724 408.825 783.116 437.331 766.03C486.315 736.67 558.574 737.915 607.9 766.691C615.833 770.988 623.768 775.286 631.7 779.583C677.061 808.038 708.128 847.216 725.909 903.543C729.069 913.554 731.702 924.697 733.842 935.938C734.393 942.879 734.944 949.822 735.495 956.763C735.605 964.585 735.715 972.41 735.826 980.233C734.724 990.149 733.622 1000.07 732.52 1009.98C736.156 1008.66 739.793 1007.34 743.429 1006.02C749.599 1004.8 755.77 1003.59 761.94 1002.38C785.914 998.369 827.145 1015.78 831.688 1029.82C823.274 1028.67 814.414 1025.73 805.243 1024.2C772.049 1018.65 741.048 1040.47 727.892 1056.92C723.834 1061.99 713.109 1072.2 712.356 1079.4C727.009 1079.4 741.667 1079.4 756.32 1079.4C757.403 1078.51 760.416 1071.45 761.609 1069.81C767.413 1061.87 776.355 1053.88 785.74 1049.65C816.716 1035.68 845.418 1048.09 865.074 1063.86C869.423 1067.35 876.781 1073.49 878.296 1079.4C975.361 1079.4 1072.45 1079.4 1169.52 1079.4C1170.18 1077.75 1170.84 1076.09 1171.5 1074.44C1175.36 1068.27 1179.21 1062.1 1183.07 1055.93C1195.12 1038.99 1212.76 1024.6 1232.98 1015.93C1292.43 990.466 1345.76 1023.83 1383.06 1048.66C1390.28 1053.46 1417.94 1072.19 1419.75 1079.4C1474.73 1079.4 1529.72 1079.4 1584.7 1079.4C1581.94 1073.45 1579.19 1067.5 1576.44 1061.55C1570.06 1046.94 1564.4 1031.69 1559.58 1015.93C1553.74 996.856 1551.49 976.291 1547.68 955.11C1546.8 945.745 1545.91 936.377 1545.03 927.013C1545.03 926.462 1545.03 925.911 1545.03 925.36C1549.46 926.742 1552.94 936.73 1555.28 940.566C1564.27 955.285 1571.45 971.362 1580.4 986.514C1598.18 1016.61 1616.22 1042.13 1644.86 1061.22C1652.74 1066.47 1661.57 1071.64 1670.65 1075.43C1672.72 1076.3 1679.35 1077.67 1679.24 1079.4C1687.17 1079.4 1695.11 1079.4 1703.04 1079.4C1723.09 1079.4 1743.15 1079.4 1763.2 1079.4C1769.94 1075.24 1777.68 1071.76 1784.36 1067.5C1800.29 1057.35 1812.97 1042.56 1822.7 1026.18C1827.66 1017.83 1831.41 1007.44 1834.27 997.422C1853.16 931.223 1805.96 880.744 1768.49 857.265C1758.96 851.294 1737.93 839.753 1720.56 843.051C1714.72 844.16 1702.4 849.108 1697.42 848.009C1691.82 846.773 1689.11 841.969 1687.84 836.439C1686.46 830.486 1688.82 824.887 1690.48 820.903C1698.12 802.524 1717.2 788.307 1745.68 794.458C1780.87 802.056 1807.09 816.504 1831.3 834.786C1838.82 840.464 1844.96 848.146 1852.45 853.628C1852.56 853.848 1852.67 854.069 1852.78 854.289C1852.67 854.509 1852.56 854.73 1852.45 854.95C1840.22 853.426 1831.57 846.437 1818.74 845.364C1818.52 845.805 1818.3 846.246 1818.08 846.686C1817.97 847.678 1817.86 848.669 1817.74 849.661C1822.24 854.106 1830.65 855.319 1836.26 858.586C1844.62 863.465 1852.84 868.672 1860.39 874.453C1894 900.208 1917.85 937.69 1918.57 996.43C1918.23 1005.24 1917.9 1014.06 1917.57 1022.87C1915.22 1036.39 1913.45 1049.43 1909.64 1061.55C1907.55 1067.5 1905.45 1073.45 1903.36 1079.4C1910.63 1079.4 1917.9 1079.4 1925.18 1079.4C1925.18 1003.49 1925.18 927.556 1925.18 851.645C1886.68 845.33 1845.01 803.118 1864.68 756.444C1875.23 731.43 1898.17 715.541 1922.2 703.885C1922.31 703.885 1922.42 703.885 1922.53 703.885C1920.33 708.843 1918.12 713.802 1915.92 718.76C1910.52 732.669 1911.65 753.377 1918.23 764.708C1920.1 767.92 1921.45 772.713 1925.18 773.964C1925.18 723.283 1925.18 672.587 1925.18 621.907C1924.96 621.797 1924.74 621.687 1924.52 621.576C1919.61 628.091 1916.84 635.833 1911.95 642.071C1893.11 666.131 1863.38 684.729 1830.64 694.63C1820.59 697.669 1809.77 699.025 1798.57 700.911C1773.55 705.124 1745.99 699.715 1726.84 693.969C1665.15 675.461 1627.82 632.979 1604.53 575.959C1598.45 561.056 1594.62 544.564 1591.31 526.375C1590.76 519.103 1590.21 511.83 1589.66 504.558C1589.44 498.168 1589.22 491.776 1589 485.386C1590.89 472.719 1591.1 460.083 1593.96 448.694C1610.34 383.269 1650.13 341.967 1709.32 319.115C1731.46 310.567 1773.58 301.3 1805.84 306.223C1820.71 308.492 1834.8 309.33 1847.83 313.165C1868.57 319.273 1887.3 327.154 1902.7 338.618C1907.79 342.407 1921.31 358.507 1925.18 359.774C1925.18 340.053 1925.18 320.325 1925.18 300.604C1806.05 300.675 1726.63 260.021 1692.47 174.659ZM724.92 287.049C711.782 293.726 655.876 312.197 646.577 289.693C641.849 278.251 653.604 275.356 660.13 272.504C677.277 265.01 693.633 255.756 709.383 246.39C756.729 218.235 800.679 187.044 854.829 165.733C870.196 159.685 887.038 156.087 904.744 152.511C914.329 151.519 923.917 150.527 933.503 149.536C951.356 149.512 968.136 149.417 982.756 152.842C1034.1 164.87 1073.91 193.326 1093.16 237.465C1104.46 263.363 1106.11 304.792 1096.8 334.319C1081.3 383.486 1045.07 428.861 995.648 444.065C940.724 460.962 896.708 431.23 878.63 395.803C869.874 378.644 866.701 350.331 875.324 330.352C881.698 315.585 893.229 302.97 909.702 298.288C942.731 288.901 981.551 315.408 976.145 347.872C973.08 366.272 965.596 375.847 947.056 378.945C941.906 379.806 935.878 378.112 932.511 375.97C927.319 372.667 918.956 356.601 927.883 350.848C929.403 349.869 932.2 349.69 934.164 350.187C941.124 351.947 938.828 355.675 941.106 362.087C941.216 362.418 941.326 362.748 941.437 363.079C955.315 363.45 955.417 347.483 950.032 338.618C939.506 321.293 911.89 325.255 902.431 340.601C876.163 383.219 938.024 418.884 979.451 402.085C1018.46 386.265 1043.54 332.921 1022.75 280.108C1007.3 240.838 977.298 214.773 933.503 203.749C908.672 197.498 877.203 202.725 856.813 209.038C802.017 226.002 771.778 263.235 724.92 287.049ZM1259.1 898.915C1227.36 971.379 1149.93 1030.54 1069.69 1054.94C1024.35 1068.73 962.953 1069.08 920.28 1052.62C853.685 1026.94 804.926 981.091 785.081 908.501C778.846 885.692 773.601 852.624 778.47 823.547C780.806 809.598 782.914 795.869 786.734 783.219C794.81 756.475 806.284 731.788 820.121 710.496C849.56 665.194 889.488 629.555 943.42 608.684C955.274 604.097 968.236 601.623 982.095 599.098C990.028 598.437 997.963 597.776 1005.89 597.115C1076.54 597.019 1122.37 621.687 1162.58 651.988C1177.05 662.892 1190.94 674.638 1202.25 688.68C1215.2 704.777 1227.89 719.366 1238.94 737.933C1241.25 741.899 1243.57 745.867 1245.88 749.833C1246.21 750.053 1246.54 750.274 1246.87 750.494C1246.98 750.494 1247.09 750.494 1247.2 750.494C1244.28 734.689 1236.78 722.218 1230.35 709.835C1230.35 709.725 1230.35 709.615 1230.35 709.504C1240.5 711.839 1250.65 727.405 1255.8 735.618C1285.06 782.329 1281.51 847.772 1259.1 898.915ZM1184.73 628.517C1166.07 596.394 1165.35 547.541 1180.76 512.16C1184.1 504.493 1188.66 493.237 1195.97 489.682C1196.08 489.682 1196.19 489.682 1196.3 489.682C1196.63 495.191 1196.96 500.701 1197.29 506.21C1199.14 516.543 1200.31 526.616 1203.24 535.96C1217.76 582.345 1246.03 619.903 1288.19 638.434C1300.12 643.675 1312.78 647.863 1326.87 650.995C1409.61 669.393 1482.69 620.012 1511.98 573.313C1522.16 557.089 1538.26 521.666 1533.14 492.326C1529.56 471.795 1526.06 454.71 1517.27 439.767C1512.97 433.267 1508.68 426.764 1504.38 420.264C1504.05 420.264 1503.72 420.264 1503.39 420.264C1506.03 432.017 1510.22 444.376 1512.64 457.948C1514.42 467.881 1513.89 482.243 1512.31 491.665C1503.3 545.68 1481.73 573.057 1442.23 596.122C1384.97 629.563 1293.26 614.297 1258.44 570.999C1247.05 556.826 1236.97 543.007 1231.01 523.068C1209.67 451.659 1259.6 402.198 1309.68 386.877C1347.75 375.229 1395.24 382.314 1420.09 400.43C1431.5 408.753 1440.79 419.496 1446.2 433.816C1461.29 473.732 1432.55 513.871 1406.2 525.05C1381.55 535.512 1358.01 526.95 1349.68 506.869C1344.91 495.393 1345.01 474.533 1355.3 469.516C1357.92 469.525 1359.13 469.965 1360.92 470.508C1364.28 475.109 1362.25 479.373 1360.26 484.391C1363.88 492.262 1377.25 491.395 1385.05 488.027C1395.19 483.643 1406.93 466.162 1403.89 449.021C1402.26 439.856 1400.36 431.86 1396.29 425.221C1381.93 401.815 1343.13 389.273 1310.34 403.404C1273.71 419.187 1255.28 469.454 1275.63 515.464C1288.75 545.123 1316.58 561.996 1352.98 568.684C1373.33 572.421 1394.96 566.095 1408.85 560.42C1448.14 544.358 1472.79 516.184 1485.87 473.813C1490.49 458.852 1493.99 435.869 1490.16 416.957C1488.5 408.733 1486.58 400.827 1483.55 393.818C1471.51 365.965 1445.45 350.3 1413.47 342.251C1387.29 335.657 1348.84 336.92 1322.9 342.582C1257.89 356.775 1211.86 385.841 1177.46 430.18C1161.91 450.221 1148.2 472.048 1132.83 492.325C1105.24 528.729 1066.94 554.969 1015.81 568.023C994.216 573.537 961.137 575.99 936.148 571.329C917.402 567.832 900.302 563.653 884.581 557.446C884.14 557.446 883.699 557.446 883.259 557.446C869.043 625.899 845.404 680.656 792.025 709.503C772.167 720.235 735.514 727.897 708.724 717.436C681.962 706.986 662.581 687.02 655.504 656.944C646.111 617.026 670.018 585.366 694.179 572.982C701.546 569.206 713.225 564.025 724.921 565.379C749.355 568.208 765.426 577.022 773.513 595.79C780.675 612.411 775.104 633.974 764.257 642.399C753.74 650.568 736.925 649.092 731.862 636.779C727.6 626.414 736.229 618.86 745.745 621.904C746.45 623.096 748.183 630.585 749.381 631.16C751.128 631.998 753.846 630.278 754.67 629.838C763.84 624.945 763.42 612.583 757.314 604.716C742.636 585.8 713.536 600.663 706.738 616.286C692.532 648.935 726.978 674.314 759.628 666.2C789.281 658.831 807.442 638.727 817.807 611.988C828.021 585.639 823.031 545.943 813.84 522.406C794.804 473.654 751.814 428.382 771.859 355.143C775.779 340.821 780.199 326.278 787.065 314.484C796.456 298.353 807.51 281.806 821.774 270.52C838.769 257.072 858.148 246.548 881.605 239.447C889.207 237.904 896.812 236.362 904.414 234.819C908.27 234.488 912.128 234.158 915.984 233.827C967.956 233.742 995.979 254.618 1009.2 293.328C1009.2 293.769 1009.2 294.21 1009.2 294.65C1004.7 293.413 1001.2 288.583 997.632 286.055C992.055 282.1 985.649 278.28 979.121 275.477C946.186 261.337 903.839 266.33 877.639 282.749C836.112 308.773 813.917 372.209 839.294 430.179C856.884 470.361 894.765 494.966 943.751 503.894C962.533 507.317 985.663 504.776 1000.61 500.258C1063.23 481.326 1078.06 438.934 1113.66 394.809C1125.8 379.757 1143.5 367.898 1160.27 357.456C1198.12 333.879 1241.52 318.633 1292.49 307.541C1306.47 304.499 1320.67 304.603 1335.79 302.252C1367.71 297.289 1410.3 299.014 1438.6 305.558C1465.66 311.815 1489.4 321.199 1509.01 334.978C1541.95 358.137 1564.44 391.678 1577.43 434.807C1581.64 448.764 1582.45 463.044 1585.04 479.102C1587.5 494.396 1587.53 515.473 1585.04 531C1582.89 544.361 1581.31 557.064 1577.76 569.014C1551.37 658.049 1486.76 746.633 1392.65 767.019C1377.66 770.266 1361 766.939 1347.36 765.697C1347.14 765.366 1346.92 765.036 1346.7 764.705C1346.7 764.595 1346.7 764.485 1346.7 764.374C1398.74 754.292 1459.63 715.095 1471.98 666.859C1471.98 666.749 1471.98 666.639 1471.98 666.528C1471.76 666.418 1471.54 666.308 1471.32 666.197C1456.87 685.029 1441.38 701.507 1417.77 711.153C1407.26 715.448 1395.05 717.827 1382.73 720.078C1360.06 724.221 1331.84 721.354 1311.99 717.103C1251.31 704.11 1211.73 675.007 1184.73 628.517ZM1313.32 510.177C1319.21 523.896 1331.06 534.915 1343.4 542.241C1346.67 544.187 1364.93 550.036 1365.87 552.158C1318.93 558.268 1275.31 508.035 1294.47 460.924C1300.49 446.13 1312.52 434.688 1327.53 428.86C1331.5 427.979 1335.46 427.097 1339.43 426.215C1361.05 426.119 1379.67 431.55 1385.71 446.71C1385.71 446.82 1385.71 446.93 1385.71 447.041C1383.54 446.737 1381.7 444.269 1379.43 443.074C1373.17 439.783 1362.13 436.787 1351.66 438.446C1319.57 443.531 1297.61 473.633 1313.32 510.177ZM1678.58 865.528C1701.62 855.575 1732.49 863.117 1749.65 873.131C1781.23 891.554 1819.4 937.128 1800.56 990.81C1795.51 1005.21 1787.66 1015.55 1779.07 1026.18C1774.16 1032.26 1766.41 1036.54 1759.57 1040.72C1719.78 1065.05 1668.3 1051.54 1638.58 1027.83C1607.2 1002.8 1596.33 951.695 1579.08 912.798C1566.36 884.11 1543.9 865.686 1517.6 850.322C1499.06 839.488 1468.18 833.584 1442.56 841.727C1421.8 848.328 1402.9 864.231 1394.63 883.378C1381.55 913.656 1400.32 942.03 1422.73 950.812C1453.72 962.954 1483.66 945.523 1489.17 920.731C1492.15 907.357 1478.66 881.738 1467.69 887.344C1467.03 888.005 1466.36 888.666 1465.7 889.327C1464.01 893.997 1468.23 897.635 1469.01 901.558C1471.38 913.466 1462.83 920.868 1455.13 923.044C1451.26 924.136 1446.27 923.061 1443.56 922.052C1427.12 915.951 1426.79 891.162 1436.94 878.088C1445.29 867.335 1465.99 860.508 1484.55 866.188C1504.71 872.359 1520.9 887.486 1528.84 905.855C1537.06 924.885 1537.09 952.575 1528.84 971.306C1510.68 1012.55 1444.56 1047.6 1387.36 1022.54C1349.97 1006.16 1331.04 973.663 1321.25 929.325C1317.82 913.785 1318.23 891.798 1322.24 877.096C1325.58 864.867 1329.94 853.587 1335.79 843.71C1354.17 812.704 1381.39 784.902 1416.78 770.987C1425.48 767.568 1435.27 765.713 1445.21 763.715C1449.73 763.274 1454.25 762.833 1458.76 762.393C1541.57 762.574 1605.71 817.579 1625.36 880.072C1637.66 919.16 1630.23 971.083 1662.39 991.14C1709.87 1020.76 1774.25 967.565 1744.7 918.747C1733.68 900.555 1700.28 888.14 1685.53 912.136C1676.97 926.061 1685.4 939.813 1698.75 942.217C1707.43 943.78 1711.62 939.35 1717.59 938.581C1717.81 938.691 1718.03 938.801 1718.25 938.912C1719.88 945.718 1717.44 950.409 1714.62 954.448C1704.38 969.077 1684.24 969.7 1669.33 959.076C1636.44 935.654 1642.88 880.956 1678.58 865.528ZM1592.97 656.615C1624.45 656.356 1652.86 697.803 1642.22 732.974C1637.51 748.552 1627.79 759.001 1615.12 766.691C1607.89 771.076 1596.2 776.158 1583.05 773.963C1560.69 770.23 1545.38 760.953 1541.07 738.924C1539.89 732.884 1540.78 725.639 1543.38 721.404C1547.17 715.238 1558.36 710.687 1566.19 716.446C1577.23 724.557 1567 731.611 1569.83 736.61C1572.11 740.644 1583.75 742.234 1590.99 740.907C1602.44 738.809 1611.3 731.881 1616.44 723.387C1624.71 709.711 1619.83 681.304 1598.59 685.703C1586.32 688.244 1593.33 695.73 1594.62 702.231C1596.08 709.567 1587.78 712.961 1581.4 710.495C1567.28 705.042 1559.17 684.947 1569.5 670.167C1575.41 661.705 1582.48 660.893 1592.97 656.615ZM1651.81 265.893C1638.56 296.549 1595.32 333.339 1547.68 318.783C1520.87 310.589 1496.82 292.129 1486.53 267.546C1479.89 251.687 1482.07 230.96 1490.83 219.284C1495.23 213.411 1502.43 208.017 1509.67 205.07C1513.19 204.189 1516.72 203.307 1520.25 202.426C1541.58 202.108 1555.01 210.861 1562.89 223.912C1569.33 234.592 1567.55 252.53 1553.63 253.993C1544.21 248.425 1546.9 230.369 1529.17 234.159C1524.86 235.081 1521.77 236.822 1519.59 239.779C1507.44 256.249 1536.06 272.484 1546.03 276.802C1591.95 296.685 1643.14 267.32 1653.79 231.515C1654.12 231.295 1654.45 231.074 1654.78 230.854C1654.89 230.854 1655 230.854 1655.12 230.854C1657.69 243.162 1655.82 256.624 1651.81 265.893Z" fill="black"/>
</svg>
