<svg width="1920" height="1080" viewBox="0 0 1920 1080" fill="none" xmlns="http://www.w3.org/2000/svg">
<path d="M1916.46 481.983C1915.02 481.519 1913.62 480.992 1912.18 480.496C1911.56 479.553 1910.89 479.569 1910.13 480.416C1908.84 480.448 1907.55 480.48 1906.28 480.512C1905.61 479.297 1904.64 478.066 1906.69 476.979C1907.96 476.308 1909.27 475.652 1910.41 474.901C1913.4 472.902 1912.61 469.737 1908.86 468.57C1907.41 468.106 1905.93 467.723 1904.44 467.291C1905.97 466.252 1907.57 465.244 1909.03 464.157C1910.49 463.07 1910.34 461.711 1909.48 460.528C1908.62 459.393 1906.98 459.441 1905.28 459.809C1903.78 460.145 1902.2 460.336 1900.67 460.592C1899.86 458.738 1899.07 456.867 1898.24 455.013C1897.95 454.373 1897.66 453.75 1897.35 453.126C1897.23 452.551 1896.97 451.959 1896.54 451.4C1894.25 448.122 1895.25 445.053 1897.95 442.127C1899.84 440.081 1901.87 438.13 1905.52 437.235C1908.17 436.58 1908.72 434.997 1906.02 433.798C1904.47 433.11 1901.82 432.902 1901.22 431.991C1900.05 430.281 1903.25 429.577 1904.42 428.362C1904.78 427.994 1904.97 427.579 1905.4 427.003C1903.39 425.437 1901.22 423.838 1899.26 422.127C1898.02 421.04 1898.5 419.154 1900.41 418.85C1905.3 418.066 1905.07 415.62 1905.02 413.238C1904.97 411.288 1903.75 409.21 1904.44 407.419C1905.45 404.845 1906.83 402.575 1904.71 399.889C1904.13 399.17 1905.95 397.635 1906.5 396.436C1906.83 395.684 1907.43 394.565 1906.93 394.118C1903.11 390.84 1904.18 386.652 1902.13 383.071C1902.1 382.607 1902.1 382.143 1902.08 381.696C1901.15 380.928 1901.44 379.825 1900.48 379.058C1900.03 378.418 1899.57 377.763 1899.12 377.123C1898.98 376.82 1898.83 376.532 1898.52 376.292C1900.15 373.334 1900.53 370.377 1898.55 367.419C1901.48 364.254 1901.36 361.12 1898.45 357.987C1897.52 353.319 1896.59 348.65 1895.58 343.982C1895.44 343.375 1894.84 342.799 1894.46 342.208C1894.44 340.481 1894.82 338.69 1894.32 337.028C1893.82 335.397 1893.08 333.255 1891.31 332.439C1885.39 329.722 1882.04 325.469 1876.81 322.399C1874.81 318.051 1873.88 317.603 1868.72 318.61C1866.57 316.756 1864.63 314.837 1861.17 313.766C1858.93 313.079 1857.21 311.656 1855.25 310.569C1854.56 310.137 1853.7 309.834 1853.19 309.274C1853.22 309.258 1853.19 309.242 1853.22 309.242C1848.47 304.494 1841.52 301.456 1834.59 298.147C1833.59 300.193 1835.69 301.312 1836.29 302.719C1836.98 304.398 1836.31 305.357 1833.56 305.229C1829.31 305.021 1826.11 306.124 1823.03 307.851C1821.07 308.954 1819 309.993 1816.78 310.857C1813.84 311.976 1810.73 312.663 1807.84 310.697C1805.22 308.315 1802.04 307.643 1798.1 309.274C1794.59 307.611 1790.74 306.668 1786.37 306.732C1784.1 306.764 1782.74 307.404 1782.41 308.954C1782.27 309.562 1781.98 310.153 1781.48 311.464C1780.07 309.913 1779.23 308.794 1778.11 307.835C1776.3 306.3 1774.29 306.476 1772.4 307.851C1761.82 308.331 1751.24 308.666 1740.71 309.402C1736.63 309.674 1732.45 310.521 1728.79 311.752C1726.1 312.647 1723.52 313.159 1720.6 313.383C1719.46 313.479 1718.38 314.102 1717.28 314.486H1717.26C1712.46 314.454 1707.47 315.237 1703.27 312.759C1702.57 312.36 1700.71 312.487 1699.64 312.775C1693.83 314.262 1692.42 316.196 1695.77 319.746C1696.29 320.273 1697.08 320.689 1697.75 321.152C1699.71 322.256 1701.45 323.63 1703.67 324.398C1708.21 325.949 1711.7 327.931 1713.58 331.24C1715.28 334.214 1718.53 336.308 1723.37 337.156C1727.15 337.827 1730.82 338.706 1734.6 339.426C1737.08 339.905 1739.83 339.969 1742.07 340.721C1745.03 341.696 1747.71 341.44 1750.55 340.817C1753.32 340.209 1756.02 339.218 1758.84 339.106C1765.14 338.818 1770.92 337.587 1776.44 335.637C1780.28 335.973 1784.1 336.404 1787.97 336.564C1789 336.596 1790.05 336.292 1791.1 335.988C1791.48 335.909 1791.89 335.813 1792.34 335.685C1796.31 335.685 1800.37 335.269 1803.9 336.98C1808.3 339.761 1813.98 340.257 1819.52 340.976V340.992C1821.98 342.975 1824.39 345.005 1826.92 346.972C1828.79 348.411 1830.55 350.233 1834.11 348.634C1834.3 348.538 1835.62 349.194 1835.93 349.657C1836.41 350.409 1837.05 351.432 1836.64 352.088C1835.24 354.438 1836.64 355.765 1839.61 356.82C1841.61 357.523 1843.45 358.418 1845.34 359.234C1848.16 362.335 1853.29 363.566 1857.21 365.804C1858.38 367.243 1859.57 368.666 1860.74 370.105C1860.86 370.904 1861 371.704 1861.12 372.487C1859.24 374.454 1858.76 376.5 1859.88 378.77C1860.48 379.985 1861.48 381.6 1860.81 382.527C1858.69 385.373 1860.81 387.563 1862.1 390.025C1862.7 391.16 1863.11 393.047 1862.2 393.686C1859.71 395.445 1859.26 396.852 1861.6 398.754C1862.91 399.825 1862.87 401.104 1862.29 402.495C1861.82 403.694 1861.51 405.037 1861.77 406.268C1862.08 407.771 1861.24 408.794 1859.76 409.737C1858.83 410.345 1857.8 410.904 1856.97 411.576C1855.1 413.062 1855.13 414.469 1857.8 415.349C1862.08 416.74 1863.2 418.93 1862.99 421.775C1862.91 422.863 1862.89 423.966 1862.84 425.053C1861.58 425.964 1860.31 426.859 1859.05 427.755C1858.42 427.755 1857.78 427.787 1857.16 427.883C1855.11 428.058 1852.88 428.506 1854.84 430.137C1856.59 431.608 1857.35 433.094 1857.04 434.821C1856.47 438.178 1855.68 441.504 1854.99 444.861H1855.01C1852.43 445.644 1851.02 446.939 1851.21 448.89C1851.12 449.257 1851.05 449.641 1851.05 450.025C1845.82 449.833 1842.02 451.016 1840.01 454.565C1839.06 456.292 1836.98 457.731 1835.43 459.297C1830.05 460.161 1824.7 461.088 1819.31 461.871C1813.6 462.687 1807.8 461.408 1802.06 462.111C1797.45 461.344 1794.06 464.925 1789.31 463.742C1786.8 465.26 1782.6 465.692 1782.31 468.634C1781.64 469.497 1781 470.36 1780.33 471.208C1777.68 471.256 1775.32 471.575 1773.14 472.822C1770.23 474.485 1767.15 476.851 1763.78 477.139C1759.89 477.475 1756.12 479.089 1751.74 478.114C1749.95 477.714 1747.35 478.514 1745.34 479.105C1742.34 480.017 1739.35 480.512 1736.03 480.592C1731.78 480.688 1730.92 481.216 1731.54 484.237C1731.95 486.268 1730.97 486.923 1728.58 487.467C1728.03 487.578 1727.65 488.042 1727.19 488.346C1727.27 488.394 1727.31 488.426 1727.36 488.474C1727.34 488.474 1727.31 488.474 1727.29 488.474L1727.19 488.346C1726.57 488.362 1725.95 488.378 1725.33 488.362C1721.37 486.667 1720.65 486.795 1717.43 489.705C1715.37 490.424 1714.8 493.062 1711.15 491.703C1709.36 491.048 1708.16 491.863 1707.21 492.87C1705.18 495.061 1702.43 496.324 1698.35 496.308C1695.19 496.308 1690.89 495.38 1689.25 497.299C1687.93 498.849 1689.22 501.391 1689.37 503.502C1689.37 503.71 1689.53 503.917 1689.63 504.141C1688.67 504.221 1687.65 504.205 1686.74 504.413C1682.99 505.292 1679.34 506.06 1675.97 503.773C1675.61 503.534 1674.68 503.726 1674.13 503.566C1670.83 502.638 1667.85 501.919 1664.6 503.981C1662.88 505.084 1658.73 505.052 1657.99 506.188C1656 509.305 1652.64 509.545 1648.6 509.401C1643.49 506.012 1637.02 505.724 1631.33 507.626C1626.63 509.209 1622.23 509.705 1617.29 509.513C1615.07 509.433 1612.61 509.097 1611.13 510.76C1609.43 511.447 1607.79 512.039 1605.64 511.575C1598.85 510.12 1592.24 510.104 1585.91 512.742C1584.62 513.286 1582.81 513.574 1581.25 513.51C1575.59 513.302 1571.06 514.261 1568.02 517.778C1567 518.993 1563.68 518.721 1563.29 517.395C1562.39 514.149 1559.02 512.726 1555.08 511.543C1554.79 511.463 1554.48 511.335 1554.27 511.176C1549.8 507.578 1544.83 508.074 1539.6 510.344C1538 511.032 1536.24 511.543 1534.56 512.135C1531.05 513.158 1526.97 513.717 1524.22 515.316C1521.48 516.899 1520.14 519.553 1518.02 521.663C1517.13 522.526 1515.77 523.15 1514.62 523.885C1508.41 524.365 1503.9 527.051 1499.01 529.209C1496.71 529.321 1494.4 529.289 1492.17 529.561C1488.43 530.04 1485.03 531.319 1484.34 533.909C1483.27 538.114 1478.92 539.329 1473.76 540.624C1467.91 542.079 1462.94 541.119 1457.88 539.361C1455.35 538.577 1452.79 537.778 1450.26 536.979C1448.47 536.547 1446.73 535.812 1444.94 535.764C1439.42 535.604 1433.88 535.716 1428.36 535.716C1427.93 533.717 1426.64 532.151 1423.99 530.984C1421.08 529.705 1418.31 528.234 1415.73 526.667C1414.97 526.203 1415.01 525.116 1414.7 524.317C1418.43 524.141 1422.2 524.157 1425.83 523.693C1427.93 523.422 1427.6 522.287 1426.07 521.439L1426.05 521.391C1425.57 520.896 1424.97 520.48 1424.23 520.144L1424.11 520.08C1423.63 519.569 1423.01 519.185 1422.23 518.897L1422.08 518.801C1418.95 516.707 1415.78 517.139 1412.58 518.721L1412.53 518.737C1409.97 518.61 1407.4 518.482 1404.84 518.37C1403.98 518.13 1403 517.586 1402.28 517.714C1400.73 517.97 1399.3 518.53 1397.87 519.025C1395.31 519.921 1394.33 518.833 1393.54 517.522C1393.3 517.107 1393.19 516.675 1393.02 516.259C1394.36 514.917 1394.14 513.606 1391.8 513.158C1387.19 512.263 1382.49 511.559 1377.78 510.952C1373.7 510.424 1369.57 510.088 1365.44 509.753C1362.88 509.545 1360.32 509.497 1357.75 509.369C1355.69 507.307 1351.97 506.843 1349.29 505.468C1345.61 503.566 1343.44 503.806 1341.12 506.315C1340.79 506.667 1339.36 506.571 1338.45 506.683C1335.08 502.974 1335.06 503.07 1329.45 504.093C1326.34 504.653 1323.07 505.212 1319.92 505.148C1317.39 505.084 1315.69 505.436 1313.85 506.523C1310.08 508.777 1305.75 510.152 1300.48 509.353C1299.93 508.953 1299.38 508.538 1298.83 508.122C1298.02 504.861 1298.28 501.759 1301.38 498.961C1302.1 498.322 1302.24 497.395 1302.65 496.595C1302.65 496.579 1302.65 496.579 1302.65 496.579C1303.8 495.604 1304.97 494.629 1306.11 493.654C1306.92 492.119 1306.95 490.68 1304.89 489.529C1303.94 488.778 1303.18 487.722 1301.96 487.307C1299.74 486.571 1297.23 486.204 1294.86 485.692C1294.36 485.212 1293.89 484.733 1293.38 484.269C1293.17 483.885 1292.93 483.534 1292.4 483.294L1292.29 483.214C1290.37 482.319 1288.49 481.439 1286.58 480.544L1286.53 480.512C1285.93 480.049 1285.22 479.649 1284.74 479.105C1284.76 479.105 1284.79 479.105 1284.79 479.105C1284.31 478.466 1283.83 477.826 1283.35 477.171C1283.23 476.915 1283.04 476.659 1282.78 476.404C1282.16 473.302 1283.28 470.392 1284.86 467.531C1284.86 467.515 1284.86 467.499 1284.86 467.483C1286.34 467.083 1287.89 466.747 1289.3 466.252C1291.98 465.308 1291.95 465.26 1288.99 463.038C1287.6 461.12 1286.48 459.153 1287.22 456.963C1289.16 456.803 1291.12 456.707 1293.03 456.484C1299.71 455.7 1306.18 455.556 1312.39 458.018C1316.12 459.505 1316.29 459.329 1315.9 463.038C1314.5 463.55 1312.49 463.838 1311.89 464.621C1311.32 465.372 1311.75 466.843 1312.54 467.627C1317.07 472.087 1320.13 473.318 1327.01 471.703C1327.63 471.559 1328.3 471.48 1328.87 471.304C1332.57 470.121 1335.82 469.753 1339.74 471.591C1342.94 473.11 1347.5 473.27 1350.53 471.112C1353.9 468.73 1357.34 469.129 1361.14 470.009C1361.95 470.376 1362.71 470.792 1363.21 471.368H1363.19C1363.21 471.368 1363.21 471.384 1363.24 471.384C1363.57 471.527 1363.93 471.639 1364.26 471.735C1365.36 472.119 1366.46 472.567 1367.51 472.519C1372.03 472.359 1376.3 472.023 1380.77 473.462C1384.01 474.501 1390.87 472.295 1392.18 470.041C1393.38 468.01 1394.79 467.515 1397.96 467.691C1402.09 467.914 1406.3 467.547 1410.48 467.419C1411.34 467.691 1412.12 468.122 1413.01 468.186C1418.91 468.666 1419 468.682 1419.96 472.039C1420.12 472.678 1420.05 473.35 1420.24 473.973C1421.03 476.419 1421.56 476.595 1426.26 476.947C1428.46 477.107 1430.85 477.331 1432.73 478.034C1437.51 479.857 1441.86 479.441 1446.56 477.858C1449.04 477.011 1452.03 476.579 1454.85 476.451C1459.39 476.276 1462.97 475.205 1465.71 472.806C1466.31 472.663 1467.17 472.631 1467.48 472.343C1471.3 468.922 1475.2 465.532 1471.8 460.832C1471.3 460.145 1471.73 459.137 1471.73 458.29C1472.93 457.171 1474.31 456.1 1475.31 454.901C1476.17 453.846 1476.63 452.631 1477.25 451.48C1479.71 450.345 1479.61 448.602 1479.69 446.923C1479.78 445.021 1479.71 443.118 1479.73 441.216C1482.72 439.425 1486.4 439.873 1489.93 439.809C1495.09 439.729 1495.64 439.345 1496.86 435.732C1497.88 432.759 1497.88 432.759 1502.21 432.231C1505.91 431.783 1506.81 431.224 1506.91 429.05C1506.98 426.875 1506.86 424.701 1506.81 422.511C1507.53 422.111 1508.22 421.696 1508.94 421.28C1510.8 421.552 1512.69 421.855 1514.55 422.095C1516.65 422.367 1518.66 422.015 1519.62 420.768C1522.29 417.187 1526.33 414.198 1527.09 409.753C1527.81 405.692 1528.19 401.616 1528.88 397.571C1530.53 395.732 1532.18 393.894 1533.82 392.055C1536.5 389.082 1537.24 386.044 1534.68 382.879C1534.71 382.143 1534.73 381.408 1534.76 380.673C1535.28 379.697 1535.78 378.706 1536.28 377.731C1536.62 377.427 1536.76 377.091 1536.71 376.708C1537.34 375.764 1537.93 374.821 1538.53 373.878C1539.27 373.175 1539.79 372.087 1540.77 371.864C1547.65 370.249 1551.62 366.028 1557.71 363.678C1560.62 362.543 1563.68 361.104 1564.27 358.466V358.45C1566.18 357.907 1568.09 357.395 1569.98 356.804C1571.3 356.388 1572.56 355.892 1573.85 355.429C1579.03 355.429 1584.22 355.429 1589.4 355.429C1591.71 357.06 1594.77 356.644 1597.61 356.756C1602.25 356.964 1606.38 356.66 1610.1 354.214C1612.23 352.807 1615.83 352.423 1618.75 351.528C1620.13 351.096 1621.47 350.553 1622.81 350.057L1622.95 349.977C1623.62 349.673 1624.17 349.306 1624.62 348.842C1625.03 348.57 1625.27 348.251 1625.34 347.851C1628.23 345.293 1633.12 345.149 1636.85 343.582C1636.85 343.582 1636.85 343.582 1636.87 343.582L1636.9 343.614C1639.64 343.566 1642.51 343.886 1644.56 342.192C1649.67 340.721 1652.04 337.507 1655.05 334.725C1655.76 334.07 1656.15 333.063 1656.08 332.247C1655.55 326.748 1657.7 321.456 1658.54 316.053C1660.47 314.981 1660.52 313.479 1660.57 311.992C1662.62 310.921 1662.26 309.402 1662.26 307.947C1662.57 307.627 1662.69 307.292 1662.64 306.924C1665.25 304.622 1664.89 301.952 1664.31 299.394C1663.81 297.188 1662.28 295.221 1658.63 294.55C1652.95 291.081 1649.34 286.812 1646.74 281.984C1644.66 278.115 1641.6 274.502 1638.98 270.777C1636.44 268.203 1633.89 265.613 1631.36 263.039C1631.29 262.608 1631.05 262.208 1630.66 261.856C1631.48 258.371 1632.29 254.902 1633.1 251.417C1634.65 250.953 1634.7 250.441 1633.2 249.882C1632.84 248.603 1633.15 246.94 1632.05 246.109C1628.01 243.087 1626.94 238.483 1620.61 236.644C1619.35 236.277 1618.72 234.95 1617.67 234.134C1616.41 233.159 1615.02 232.28 1613.69 231.353C1612.92 230.697 1611.92 230.106 1611.46 229.37C1610.1 227.148 1607.74 226.173 1604.2 226.349C1603.3 226.381 1602.39 226.269 1601.48 226.221C1601 224.99 1600.53 223.743 1600.05 222.512C1599.4 220.897 1599.36 218.947 1597.92 217.764C1595.85 216.021 1593.34 218.083 1590.95 218.243C1589.35 218.355 1587.75 218.307 1586.17 218.419C1582.83 218.659 1582.5 218.947 1581.95 221.792C1581.83 222.432 1581.85 223.071 1581.8 223.727C1578.87 224.942 1576.05 226.221 1572.3 226.141C1568.21 226.061 1564.13 226.237 1560.07 226.301C1554.77 224.414 1554.63 224.334 1552.05 227.084C1551.21 227.979 1550.47 228.155 1549.09 228.075C1545.29 227.835 1541.49 227.612 1537.69 227.564C1536.38 227.548 1535.42 228.251 1536.07 229.338C1536.74 230.489 1537.45 231.64 1538.15 232.807C1536.98 233.175 1535.78 233.527 1534.61 233.895C1534.37 233.943 1534.18 234.007 1533.97 234.086C1528.9 235.973 1523.68 237.188 1517.68 237.108C1514.86 237.076 1512.04 237.748 1509.13 237.156C1508.56 237.028 1507.63 237.716 1506.86 238.035C1502.9 237.955 1499.2 238.355 1496.55 240.625C1496.04 240.529 1495.57 240.577 1495.14 240.769C1493.82 240.817 1492.53 240.849 1491.22 240.897C1491.77 241.073 1492.32 241.249 1492.89 241.409C1492.82 241.409 1492.77 241.393 1492.72 241.377C1492.13 241.361 1491.63 241.201 1491.22 240.897C1490.55 240.913 1489.88 240.929 1489.21 240.929C1487.4 241.217 1485.61 241.505 1483.82 241.792C1483.51 241.824 1483.2 241.856 1482.89 241.936C1478.4 241.904 1473.69 242.432 1469.49 241.696C1466.07 241.089 1463.49 241.233 1460.46 242.112C1459.08 242.512 1457.28 242.272 1455.68 242.336C1454.49 241.057 1452.58 241.009 1450.62 240.897C1446.8 240.673 1442.98 240.369 1439.16 240.05C1437.68 239.922 1426.36 240.449 1424.61 240.769C1423.71 240.929 1422.7 240.849 1421.77 240.993C1416.71 241.792 1411.72 240.753 1406.68 240.769C1406.44 240.609 1406.25 240.353 1405.99 240.321C1401.02 239.618 1395.96 239.394 1391.06 238.435C1390.27 238.291 1389.25 238.771 1388.31 238.947C1387.62 237.891 1387.84 236.948 1389.22 236.197C1390.44 235.541 1391.66 234.918 1392.88 234.294C1395.31 233.783 1397.7 233.031 1400.21 232.84C1402.91 232.648 1404.82 231.928 1404.65 230.17C1404.41 227.212 1407.23 225.965 1410.33 224.718C1410.33 224.702 1410.33 224.702 1410.33 224.702C1414.82 221.617 1417.52 218.275 1414.61 213.799C1413.49 212.04 1413.34 209.994 1412.46 208.155C1410.05 203.055 1405.37 199.091 1398.61 196.213C1395.33 194.886 1392.09 193.559 1388.82 192.232C1388.05 191.721 1387.31 191.209 1386.55 190.713C1386.55 190.713 1386.55 190.713 1386.55 190.697C1386.71 188.395 1387.86 186.717 1391.3 185.518C1396.7 183.615 1401.71 181.249 1406.89 179.075C1408.37 178.771 1410.79 178.755 1411.19 178.131C1413.44 174.71 1416.85 174.694 1421.29 175.925C1423.16 176.453 1425.07 176.149 1426.21 174.806C1427.65 174.502 1429.1 174.199 1430.54 173.895C1434.5 174.534 1438.25 174.838 1440.09 171.513C1440.4 170.969 1441.47 170.618 1442.19 170.186C1444.6 168.715 1446.11 168.587 1447.59 170.474C1449.76 173.271 1453.08 173.911 1457.24 173.783C1461.96 176.133 1467.43 176.884 1473.07 177.796C1476.84 178.419 1481.6 176.245 1484.56 179.363C1484.8 179.634 1485.85 179.858 1486.25 179.73C1490.34 178.403 1495.26 179.586 1499.15 177.732L1500.1 177.764L1501.04 177.572C1504.16 177.268 1506.6 178.179 1508.94 179.458C1510.92 180.562 1513.02 180.402 1515.17 179.474C1517.92 178.275 1519.88 176.996 1521.1 174.71C1522.46 172.168 1523.36 169.562 1524.58 167.02C1525.44 166.205 1526.3 165.39 1527.16 164.574C1528.28 164.479 1529.41 164.383 1530.53 164.287C1533.9 164.255 1537.55 165.358 1540.27 163.056L1540.32 163.024C1540.58 162.912 1541.01 162.848 1541.11 162.688C1543.45 158.627 1547.37 157.092 1553.72 158.835C1554.75 159.123 1556.42 159.059 1557.37 158.675C1560.57 157.396 1564.44 156.549 1565.92 153.863C1564.97 153.799 1564.2 153.671 1563.68 153.224C1564.39 153.383 1565.13 153.591 1565.92 153.863C1567.07 152.184 1568.57 151.129 1571.49 152.456C1571.94 152.664 1572.63 152.68 1573.21 152.776C1574.95 153.687 1576.55 154.822 1578.48 155.478C1582.88 156.997 1586.91 158.595 1588.92 161.889C1589.97 163.599 1592.55 164.239 1595.22 164.494C1598.09 167.404 1602.84 168.587 1607.31 169.371C1611.75 170.154 1616.81 170.602 1621.16 168.459C1625.15 168.172 1629.47 169.243 1633.01 167.116C1635.06 167.788 1637.11 168.315 1639.33 167.436C1643.01 165.997 1647.02 165.566 1651.23 165.518C1652.3 165.502 1653.38 164.782 1654.43 164.383H1654.45C1661.97 163.503 1662.33 163.247 1662.28 158.819C1662.28 157.94 1662.05 157.06 1662.09 156.181C1662.26 152.392 1665.08 150.634 1670.69 150.793C1673.63 150.873 1676.57 151.113 1679.48 151.001C1684.47 150.826 1689.2 149.722 1693.26 147.852C1696.36 146.397 1696.55 143.695 1697.8 141.473C1697.92 141.265 1697.92 141.041 1697.96 140.818C1697.94 140.802 1697.89 140.802 1697.87 140.786C1698.39 140.194 1699.16 139.778 1700.06 139.459C1700.69 139.315 1701.5 139.283 1701.88 139.011C1704.89 136.789 1708.33 136.309 1712.36 137.7C1713.8 138.212 1715.33 138.931 1716.81 138.947C1726.67 139.059 1736.22 138.244 1744.27 133.927C1747.9 131.961 1750.65 129.563 1750.65 126.189C1749.48 126.285 1748.33 126.349 1747.16 126.413C1748.21 126.237 1749.38 126.173 1750.65 126.189C1750.6 125.774 1750.55 125.342 1750.5 124.926C1750.48 124.926 1750.48 124.926 1750.48 124.926C1748.33 121.697 1744.89 119.091 1741.36 116.517C1737.82 113.975 1733.19 112.984 1728.41 112.169C1725.07 111.593 1723.37 113.943 1720.53 114.407C1719.31 114.599 1718.22 115.142 1717.05 115.526C1714.01 115.542 1710.96 115.558 1707.9 115.574C1706.54 115.142 1705.2 114.423 1703.79 114.343C1700.97 114.183 1699.11 113.336 1697.84 111.721C1697.87 111.721 1697.87 111.721 1697.87 111.721C1697.8 111.273 1697.75 110.842 1697.7 110.394C1697.56 110.394 1697.37 110.266 1697.2 109.978C1697.15 109.898 1697.13 109.818 1697.15 109.723C1697.32 109.962 1697.51 110.17 1697.7 110.394C1697.87 109.962 1697.84 109.547 1697.65 109.115C1698.7 100.658 1693.69 94.4069 1682.39 90.4741H1682.37L1682.3 90.57C1682.15 88.8274 1682.03 87.0848 1681.89 85.3422C1682.18 85.0544 1682.32 84.7186 1682.3 84.3669C1683.49 82.3685 1684.42 80.2742 1685.93 78.3718C1689.41 73.9433 1688.82 69.8027 1683.49 66.4294C1681.03 64.8787 1680.24 63.3279 1679.98 61.3135C1679.86 60.5142 1678.98 59.7627 1678.45 58.9793C1678.48 58.5317 1678.29 58.1161 1677.93 57.7484C1677.26 56.1337 1676.69 54.4869 1675.87 52.9042C1674.87 50.9378 1674.77 48.6997 1672.17 47.1969C1670.88 45.4543 1669.85 43.5997 1668.28 41.985C1664.41 38.0522 1661.23 33.6558 1654.45 31.4176C1648.34 26.8932 1640.1 24.3992 1632.72 21.0739C1630.59 19.8269 1628.66 18.3401 1626.27 17.3968C1619.97 14.9348 1613.47 12.7286 1607.05 10.4104C1602.94 8.15624 1597.56 7.85248 1592.93 6.3337C1585.41 3.8557 1577.86 1.26584 1569.34 0.242665C1559.98 -0.892422 1554.15 1.96931 1554.05 8.50805C1554.03 11.8174 1554.05 15.0787 1551.93 18.1483C1545.36 20.7542 1538.31 21.6014 1530.82 20.7221C1528.19 19.9228 1525.61 19.0595 1522.93 18.3241C1514.12 15.91 1505.05 16.5176 1496.23 17.9884C1492.32 18.6439 1488.09 19.5232 1485.03 21.7454C1479.76 25.5663 1473.33 28.6998 1469.51 33.416C1468.6 34.5191 1467.27 35.878 1465.67 36.2617C1459.74 37.6845 1457.67 41.0418 1455.49 44.4471C1453.61 45.79 1451.74 47.133 1449.86 48.4759C1447.64 48.7477 1445.41 49.0514 1443.17 49.2752C1441.57 49.4351 1439.92 49.7068 1438.35 49.5789C1432.23 49.0833 1426.07 48.5877 1420 47.8203C1416.88 47.4206 1413.87 46.4774 1410.81 45.774C1403.67 43.312 1398.39 39.7949 1395.91 34.4871C1395.26 33.1282 1393.09 32.8084 1390.99 33.3999C1388.79 34.0074 1386.9 34.7909 1386.93 36.6454C1384.06 38.8676 1384.09 41.0897 1386.88 43.3119C1386.93 45.2623 1386.24 47.4046 1387.17 49.1472C1389.08 52.7283 1387.96 55.8939 1386 59.1873C1385.28 60.3543 1385.3 61.7292 1384.99 62.9922C1384.99 63.4398 1384.99 63.8714 1384.99 64.3191C1384.97 65.1824 1384.97 66.0617 1384.95 66.941C1384.95 67.3887 1384.97 67.8203 1384.97 68.2679C1385.35 69.435 1386.43 70.5221 1384.92 71.7851C1383.39 73.096 1382.25 74.6148 1380.93 76.0217C1375.39 77.9242 1371.24 81.2974 1365.24 82.7203C1363.57 83.1999 1361.81 83.5516 1360.25 84.1751C1358.49 84.8786 1356.93 85.8218 1355.31 86.6531C1350.41 86.4613 1346.4 88.1879 1342.82 89.9145C1340.19 91.2095 1339.14 93.8953 1336.61 95.3661C1334.01 96.8689 1329.56 95.3501 1326.7 97.4285C1324.76 98.8353 1322.28 99.9224 1320.04 101.169C1316.84 104.271 1313.21 106.429 1307.12 104.271C1306.02 103.887 1304.56 103.871 1303.27 103.839C1300.79 103.775 1298.95 103.104 1297.63 101.665C1295.1 98.8673 1291.14 98.2438 1286.6 98.5636C1285.55 98.068 1284.31 97.6843 1283.47 97.0448C1280.85 95.0943 1277.6 94.4069 1273.83 94.5348C1272.18 94.5987 1270.55 94.5668 1268.93 94.5668C1267.62 94.1671 1266.28 93.7674 1264.96 93.3677C1259.73 91.5612 1254.5 89.7706 1249.25 87.964C1244.4 86.0616 1238.81 86.1096 1233.51 85.3742C1231.48 84.0632 1229.48 82.7523 1227.47 81.4413C1225.73 77.2847 1224.13 73.0801 1219.66 69.7388C1219.33 69.499 1218.92 69.387 1218.44 69.387C1218.42 69.387 1218.42 69.387 1218.42 69.387C1217.01 67.5805 1215.58 65.7739 1214.17 63.9673C1214.17 63.9673 1214.17 63.9673 1214.14 63.9673C1214.17 63.6156 1214 63.296 1213.69 63.0242C1213.24 62.1449 1212.78 61.2656 1212.35 60.3863C1212.31 60.2744 1212.26 60.1465 1212.16 60.0346C1212.16 59.6349 1211.9 59.3151 1211.42 59.0753C1210.23 57.7804 1209.03 56.4694 1207.84 55.1744L1207.79 55.1265C1207.31 54.6149 1206.45 54.2951 1206.05 53.7356C1206.05 53.7196 1206.05 53.7036 1206.05 53.6876C1204.69 52.4087 1203.33 51.1298 1201.96 49.8348C1201.39 49.3872 1200.72 49.0034 1199.98 48.6996L1199.79 48.6038C1195.25 45.7101 1189.83 43.7597 1184.29 41.9212C1183.29 41.1218 1181.4 41.4575 1180.42 40.5782H1180.45C1178.58 39.7948 1176.84 38.8356 1174.88 38.26C1168.58 36.3896 1161.84 36.3736 1155.11 36.4855C1154.94 36.4216 1154.75 36.3575 1154.54 36.3096C1153.58 35.9898 1152.63 35.6381 1151.62 35.4303C1146.15 34.2952 1140.64 35.4303 1135.12 35.3824C1130.68 35.3504 1126.74 36.3575 1123.44 38.308C1120.07 40.3064 1116.95 42.4967 1113.7 44.607C1113.15 44.8148 1112.48 44.9586 1112.07 45.2624C1104.96 50.3463 1096.5 53.9595 1086.43 55.83C1086.16 55.8779 1085.95 56.1176 1085.71 56.2615C1081.55 56.7411 1077.33 57.1089 1073.19 57.7164C1068.78 58.3719 1064.43 59.2671 1060.04 60.0505C1057.43 63.0081 1052.18 61.4573 1048.74 63.0081C1047.95 63.3598 1047.26 63.8394 1046.52 64.2551C1045.25 64.303 1043.8 64.0792 1042.75 64.4149C1037.97 66.0296 1033.31 67.7883 1028.61 69.4829C1022.35 69.8026 1019.56 72.8562 1016.98 76.1016L1017 76.1176C1016.48 76.5652 1015.97 76.9969 1015.45 77.4445C1014.57 79.2831 1013.85 81.1695 1012.75 82.9441C1010.84 86.0616 1011.91 89.0832 1014.23 91.6571C1017.55 95.3021 1021.09 98.9792 1026.94 101.201C1031.26 104.143 1037.32 103.967 1042.65 105.166C1044.75 105.598 1046.83 106.189 1049 106.413C1055.14 107.053 1061.16 107.836 1066.25 110.426C1070.09 112.872 1074.82 114.375 1079.76 115.19C1087.24 116.421 1094.88 117.668 1102.52 117.86C1107.13 117.988 1111.19 118.819 1115.44 119.523C1118.57 119.938 1121.67 120.418 1124.83 120.77C1129.53 121.329 1134.26 121.793 1138.97 122.304C1139.56 124.543 1138.18 127.021 1140.88 128.987C1140.73 129.291 1140.68 129.595 1140.73 129.898C1140.14 130.378 1139.51 130.858 1138.89 131.321C1138.3 131.369 1137.7 131.449 1137.1 131.545C1137.1 131.561 1137.1 131.561 1137.1 131.561C1135.31 131.305 1133.14 130.49 1131.8 130.89C1127.5 132.184 1123.51 133.927 1119.38 135.494C1118.09 135.494 1116.78 135.478 1115.47 135.462C1114.84 135.382 1114.2 135.334 1113.53 135.334C1111.12 133.751 1108.44 132.76 1104.79 133.08C1102.95 133.256 1100.97 133.032 1099.11 132.808C1093.69 132.136 1088.34 131.097 1082.89 130.746C1080.43 130.586 1079.93 129.195 1078.16 128.811C1075.22 127.948 1072.36 126.989 1069.35 126.253C1065.43 125.278 1061.3 124.655 1057.48 123.551C1052.97 122.256 1053.06 122.113 1049.62 124.591C1048.95 125.054 1048.19 125.47 1047.5 125.933C1044.94 127.708 1045.23 128.587 1048.74 129.547C1051.13 130.202 1054.23 130.362 1055.86 131.497C1059.39 133.975 1061.9 132.648 1064.74 131.161C1064.91 131.065 1065.36 131.177 1065.98 131.225C1066.17 132.456 1066.25 133.751 1066.56 135.014C1066.89 136.309 1068.56 136.581 1070.16 136.837C1070.35 137.252 1070.31 137.844 1070.71 138.036C1072.72 139.027 1075.22 139.666 1076.78 140.881C1078.38 142.112 1078.93 143.935 1080.31 145.326C1081.15 146.173 1082.7 146.685 1083.92 147.34C1083.92 147.34 1083.94 147.34 1083.94 147.324C1084.3 147.564 1084.75 147.692 1085.23 147.788C1086.09 148.076 1086.95 148.379 1087.79 148.667C1087.95 149.515 1088.12 150.362 1088.29 151.193C1086.43 152.92 1083.7 152.616 1081.17 152.456C1074.77 152.088 1068.35 151.193 1061.97 151.273C1051.77 151.369 1042.1 150.394 1033.03 147.18C1027.03 145.134 1020.85 145.358 1014.3 145.917C1008.28 146.429 1004.96 148.315 1002.82 151.913C1001.12 154.758 1000.81 157.396 1003.1 160.082C1004.39 161.585 1005.75 163.056 1007.07 164.558C1014.11 170.666 1023.83 173.527 1034.82 174.886C1039.66 177.012 1043.39 180.162 1048.98 181.633C1051.58 182.32 1052.92 183.919 1053.54 185.614C1054.16 187.276 1054.26 189.019 1054.57 190.729C1052.06 195.334 1052.44 200.114 1052.66 204.878C1052.8 208.587 1052.51 212.216 1050.39 215.717L1050.34 215.685C1046.71 216.069 1044.94 218.083 1045.54 219.922C1047.47 225.997 1045.3 232.12 1046.66 238.163C1044.37 242.432 1040.29 246.349 1040.62 251.161C1037.71 252.967 1039.24 255.509 1038.26 257.636C1033.65 260.657 1029.83 263.902 1031.19 268.635C1029.04 271.097 1026.91 273.575 1024.76 276.037C1021.97 276.532 1019.17 276.996 1016.4 277.524C1012.11 278.339 1012.03 278.467 1013.18 281.536C1014.04 283.87 1013.99 284.03 1011.01 284.958C1009.86 285.309 1008.6 285.517 1007.38 285.789C1001.72 286.252 996.033 286.764 991.567 289.53C987.03 290.665 982.062 291.4 979.794 294.822C978.552 295.557 977.334 296.5 978.671 297.507C979.841 298.403 981.561 299.41 983.161 299.506C985.263 299.634 987.46 298.93 989.633 298.579C990.708 298.339 991.782 298.099 992.857 297.859C993.287 297.795 993.693 297.715 994.099 297.587C996.105 297.507 998.421 298.003 999.568 296.292C1004.82 294.63 1010.05 292.951 1015.31 291.288C1020.32 290.377 1025.34 289.53 1030.64 289.546C1032.76 289.562 1034.91 288.81 1037.06 288.411C1037.8 288.027 1038.57 287.627 1039.33 287.244C1041.89 287.02 1044.42 286.828 1046.95 286.572C1052.27 286.045 1057.77 286.125 1062.73 284.446C1065.72 284.526 1068.73 284.606 1071.71 284.67C1074.91 288.251 1073.51 292.264 1074.13 296.101C1071.88 297.364 1072.41 299.138 1072.48 300.721C1072.55 302.527 1071.67 303.934 1069.85 305.181C1066.7 305.261 1063.55 305.341 1060.39 305.421C1055.09 304.798 1052.13 307.499 1048.45 309.178C1039.93 310.105 1032.38 312.136 1026.48 316.692C1023.19 319.234 1022.28 321.904 1022.69 325.053C1022.92 327.036 1024.5 328.475 1027.17 328.858C1033.86 329.802 1040.57 330.025 1046.95 327.819C1048.84 326.972 1050.72 326.124 1052.63 325.293C1054.26 325.261 1055.88 325.213 1057.5 325.229C1061.11 325.245 1065.39 324.957 1067.37 327.196C1069.73 329.929 1066.39 332.072 1063.81 334.038C1055.9 333.495 1050.27 336.404 1044.82 339.618C1040.48 343.598 1040.79 345.229 1046.66 348.794C1050.41 351.608 1055.45 351.976 1060.63 352.215C1063.14 352.327 1065.65 352.583 1068.18 352.775C1069.28 353.542 1070.28 354.39 1071.52 355.029C1076.49 357.619 1076.94 361.152 1076.04 364.877C1075.85 365.725 1074.39 366.524 1073.29 367.179C1072.38 367.707 1071.12 367.995 1070.02 368.394C1065.62 368.299 1061.85 369.354 1058.44 371.128C1055.26 372.775 1054.73 374.629 1056.41 377.203C1057.93 379.553 1059.37 381.951 1060.66 384.366C1061.99 386.892 1063.69 389.114 1067.99 389.817C1072.55 391.16 1077.11 392.487 1081.67 393.83C1085.66 395.972 1088.53 399.058 1093.61 400.289C1096.19 402.479 1098.77 404.653 1101.35 406.843C1101.83 407.691 1102.31 408.522 1102.78 409.369C1102.88 409.849 1103.07 410.297 1103.52 410.728C1102.88 412.007 1102.24 413.286 1101.61 414.581C1101.04 414.565 1100.52 414.677 1100.06 414.885C1097.32 416.34 1094.4 417.699 1091.87 419.313C1089.72 420.672 1089.86 421.6 1092.06 423.246C1093.09 424.014 1094.57 424.525 1095.86 425.149C1096.5 425.58 1097 426.076 1097.32 426.652C1098.89 428.362 1100.44 430.073 1102 431.799C1102.47 437.491 1102.5 443.134 1097.7 448.218C1097.53 448.394 1097.6 448.65 1097.58 448.874C1096.91 450.536 1096.24 452.215 1095.57 453.878C1092.59 457.379 1092.25 461.392 1091.75 465.165C1091.25 469.065 1089.24 472.215 1086 475.236C1084.51 477.155 1083.32 479.233 1084.61 481.28C1086.38 484.125 1084.75 486.603 1083.68 489.209C1083.06 489.769 1082.46 490.344 1081.84 490.92C1079.26 492.247 1076.68 493.59 1074.1 494.917C1064.29 497.283 1054.95 497.219 1046.64 492.343C1045.42 490.712 1043.46 489.849 1040.76 489.705C1031.93 486.619 1023.09 483.534 1014.25 480.464C1013.99 480.368 1013.61 480.448 1013.28 480.432L1013.25 480.448C1012.92 480.24 1012.51 480.128 1012.08 480.033C1011.17 479.713 1010.24 479.393 1009.31 479.073C1008.62 478.674 1007.93 478.274 1007.23 477.874C1006.64 477.427 1005.97 477.027 1005.23 476.675L1005.13 476.627C1003.91 475.045 1001.72 475.029 999.496 475.077C999.496 475.093 999.52 475.093 999.52 475.109C999.042 474.949 998.541 474.821 998.063 474.725C996.797 474.373 995.532 474.021 994.242 473.942C992.045 473.814 990.851 475.428 992.164 476.723C992.785 477.331 994.218 477.587 995.293 478.002C997.108 480.065 1000.05 480.544 1003.32 480.512L1003.27 480.56C1004.42 481.232 1006.14 481.008 1007.28 481.695C1007.85 481.823 1008.43 481.903 1009.02 481.919C1011.25 482.782 1013.3 483.918 1015.69 484.493C1023.33 486.332 1030.28 488.969 1036.85 492.103C1039.35 492.758 1041.84 493.43 1044.35 494.085C1045.3 498.082 1046.23 502.095 1047.26 506.108C1047.35 506.491 1047.93 506.827 1048.26 507.179C1050.84 510.536 1050.63 513.957 1048.76 517.411L1048.69 517.506C1048.36 517.666 1048.14 517.874 1047.98 518.114C1047.26 518.705 1046.57 519.297 1045.85 519.889C1044.78 520.416 1043.7 520.944 1042.63 521.487C1039.74 521.343 1037.95 522.654 1035.99 523.757C1034.29 524.701 1032.57 525.644 1030.88 526.603C1030.21 526.571 1029.56 526.491 1028.92 526.523C1026 526.651 1022.85 526.523 1021.75 528.953C1021.59 529.305 1021.85 529.833 1022.16 530.184C1023.76 532.007 1026.39 531.959 1029.06 531.783C1030.88 532.199 1032.69 532.854 1034.58 532.966C1038.35 533.19 1041.46 534.181 1044.13 535.908C1044.73 538.849 1043.49 541.439 1040.79 543.773C1035.41 545.916 1031.74 549.049 1028.92 552.774C1027.06 555.236 1025.05 557.73 1022.57 559.936C1020.51 561.759 1017.65 563.198 1015.14 564.812C1015.14 564.812 1015.14 564.812 1015.14 564.796C1010.31 564.653 1005.39 565.18 1000.86 563.31C997.299 561.839 993.359 560.768 989.585 559.521C990.015 551.431 983.209 545.244 977.191 538.913C973.728 535.268 968.163 535.524 964.891 539.265C964.127 540.128 964.127 541.311 963.769 542.35C960.163 545.276 955.363 545.26 950.395 544.78C949.01 544.333 947.673 543.693 946.216 543.486C943.732 543.15 941.057 543.342 938.693 542.846C934.49 541.967 930.263 541.791 926.657 543.39C922.454 545.26 918.179 547.402 918.394 551.447C915.552 555.364 915.91 559.585 915.791 563.757C915.767 564.093 916.412 564.461 916.746 564.812C916.794 565.228 916.866 565.66 916.913 566.091C916.197 570.472 915.48 574.836 914.764 579.217C914.358 579.537 913.809 579.792 913.546 580.16C911.97 582.382 912.328 585.196 908.841 586.811C905.904 585.26 902.966 583.709 900.005 582.158C899.766 582.031 899.551 581.855 899.336 581.711H899.312C899.121 580.911 898.93 580.112 898.715 579.313C896.041 575.108 898.429 571.607 902.393 568.521C905.116 566.411 908.364 564.621 911.779 562.43C907.671 561.823 905.116 563.374 902.584 564.573C897.521 566.971 892.841 566.459 888.136 564.157C886.631 563.422 884.96 562.814 883.36 562.143C882.357 561.311 881.592 560.272 880.327 559.681C876.195 557.762 871.514 556.179 872.565 551.927C872.637 551.623 871.872 551.239 871.562 550.872C869.221 548.234 866.26 546.059 861.842 544.956C861.603 543.15 862.224 541.215 860.075 539.697C859.072 537.283 861.221 535.86 863.681 534.533C866.977 534.085 870.248 533.637 873.52 533.19C875.622 532.726 877.795 532.375 879.777 531.735C880.78 531.415 881.974 530.552 881.998 529.912C881.998 529.321 880.708 528.41 879.705 528.186C873.066 526.715 866.356 525.372 859.669 523.997C857.066 523.118 854.463 522.255 851.836 521.375C849.471 520.416 847.107 519.473 844.743 518.514C843.573 518.402 842.737 517.97 842.211 517.267C842.235 517.235 842.283 517.203 842.307 517.171C841.662 513.654 839.369 510.696 835.477 508.298C831.775 506.028 828.097 503.726 824.396 501.439C820.933 497.794 819.739 493.366 815.703 489.897C815.01 489.305 814.819 488.154 815.13 487.387C817.685 481.152 814.843 475.94 808.753 471.272C809.637 467.451 807.654 463.854 805.314 460.672C800.848 454.565 800.705 447.675 796.669 441.552C796.072 440.656 796.621 439.425 796.645 438.338C797.385 435.572 798.15 432.823 800.848 430.52C803.404 428.602 806.007 426.716 808.514 424.781C811.165 422.735 811.356 420.864 808.49 419.585C806.174 418.53 803.308 418.05 800.681 417.315V417.299C799.989 416.052 798.508 415.876 796.764 415.988C797.433 416.212 798.078 416.436 798.747 416.644C798.006 416.516 797.29 416.388 796.764 415.988C795.403 415.588 794.042 415.189 792.657 414.789C792.131 414.006 791.2 413.238 791.152 412.423C790.651 406.06 794.949 401.983 804.168 399.841C805.051 399.633 805.863 399.25 806.699 398.93C813.482 397.443 819.786 395.205 826.712 393.83C832.133 392.759 837.769 390.76 838.366 385.98C842.976 378.227 842.761 377.475 834.497 372.135C833.375 370.569 831.226 370.153 828.933 369.833C822.198 368.874 815.512 367.835 808.825 366.828C808.849 364.797 808.872 362.767 808.896 360.753C809.637 359.921 810.353 359.074 811.093 358.243C813.076 356.996 815.058 355.733 817.064 354.47C821.148 352.695 825.494 351.944 830.342 352.823C831.512 353.047 832.802 352.919 834.044 352.967C834.784 352.951 835.501 352.951 836.217 352.935C840.969 353.558 845.507 352.407 849.424 351.24C858.14 348.602 860.266 343.934 852.528 339.714C847.441 336.948 841.638 334.981 834.688 335.381C832.491 335.013 830.318 334.614 828.121 334.278C824.491 333.75 822.724 331.288 825.136 329.402C830.055 325.501 830.724 324.222 839.178 325.469C841.423 325.805 843.596 326.316 845.793 326.732C847.991 328.203 850.618 328.986 853.722 329.082C858.236 330.937 863.179 330.377 868.051 330.217C878.368 329.897 877.413 327.228 876.816 321.968C876.72 320.961 875.67 319.873 874.619 319.09C872.445 317.491 869.962 316.053 867.598 314.55C866.953 314.134 866.308 313.718 865.639 313.319C859.86 311.96 853.746 311.033 848.397 309.13C842.713 307.084 836.886 306.492 830.724 306.428C828.647 306.029 826.545 305.629 824.467 305.245C823.87 302.224 823.249 299.186 822.652 296.165C823.416 293.303 821.888 290.185 824.754 287.516C825.924 286.428 827.142 285.469 829.315 285.421C830.939 285.389 832.539 285.405 834.163 285.405C834.498 285.725 834.975 285.837 835.548 285.757C837.363 287.132 839.656 287.084 842.044 286.7C844.671 286.78 847.274 286.86 849.901 286.956C850.546 286.988 851.215 287.02 851.883 287.052C857.233 288.683 862.439 290.761 868.529 290.601C874.213 290.457 879.491 291.496 884.888 292.344C887.634 293.175 890.405 294.006 893.175 294.822L894.058 295.109L895.014 295.061C897.641 295.893 900.244 296.74 902.871 297.587C906.978 299.474 911.444 299.074 915.91 298.483C916.388 298.419 916.698 297.843 917.08 297.507C918.728 296.324 918.585 294.854 916.77 294.182C911.014 292.072 906.644 288.187 899.408 287.947C899.384 287.963 899.384 287.979 899.36 288.011C898.572 287.771 897.832 287.483 897.163 287.148C894.417 286.716 891.718 286.189 888.972 285.869C886.249 285.549 884.339 284.702 883.383 282.943C885.652 279.474 885.652 279.474 881.019 278.611C879.18 278.259 877.317 277.987 875.455 277.683C874.738 277.284 874.022 276.884 873.305 276.484C870.75 273.591 867.096 271.161 867.12 267.292C867.144 265.597 864.971 263.695 863.156 262.256C860.17 259.874 857.758 257.444 857.448 254.23C857.4 253.687 856.445 253.175 855.919 252.648C856.182 250.202 855.442 247.931 853.674 245.725C850.546 241.792 849.424 237.54 849.758 233.063C850.021 229.578 849.83 226.077 849.901 222.576C849.925 220.785 849.782 219.027 847.704 217.716C842.498 214.39 841.662 210.202 841.925 205.661C842.092 202.4 841.877 199.123 841.519 195.861C841.232 193.271 840.516 190.697 839.966 188.123C839.728 188.379 839.489 188.635 839.25 188.875C839.369 188.587 839.584 188.315 839.966 188.123C840.564 185.422 842.641 183.455 846.08 181.888C852.934 178.755 859.382 175.142 867.574 173.559C870.463 172.696 873.449 171.912 876.267 170.937C879.658 169.786 881.067 167.42 879.705 165.006C877.938 161.937 875.526 159.299 870.965 157.476C866.403 155.654 861.746 154.167 856.66 153.527C846.438 152.264 836.145 152.056 825.757 153.255C819.428 153.975 812.932 153.991 806.484 154.295C805.911 154.311 805.29 154.007 804.669 153.847C804.669 152.984 804.669 152.12 804.669 151.257C804.908 151.113 805.266 151.017 805.41 150.841C807.344 148.363 809.398 145.933 811.093 143.391C812.741 140.897 813.601 138.132 817.303 136.405C817.78 136.181 817.828 135.142 817.518 134.63C816.371 132.76 813.171 131.353 810.64 131.753C801.613 133.176 792.609 134.726 783.63 136.245C783.367 136.293 783.176 136.549 782.961 136.709C779.737 137.108 776.513 137.508 773.313 137.908C773.313 137.908 773.313 137.908 773.289 137.908C768.369 134.678 762.876 132.552 755.64 133.943C754.995 133.495 754.351 133.064 753.706 132.632C753.658 132.216 753.515 131.817 753.276 131.433C754.9 129.898 754.446 128.124 754.518 126.429C754.613 124.83 755.76 123.951 758.124 124.079C762.829 124.335 767.056 123.36 771.235 122.129C771.904 121.745 772.525 121.745 773.146 122.161C773.838 122.129 774.531 122.097 775.199 122.065C775.892 121.697 776.585 121.361 777.325 121.041C777.325 121.073 777.325 121.121 777.349 121.153C777.97 121.201 778.519 121.121 779.044 120.882C782.817 120.45 786.591 120.05 790.364 119.587C796.048 118.915 801.708 118.1 807.416 117.508C814.58 116.773 820.981 114.998 826.282 111.593C832.277 109.595 838.343 107.932 845.101 107.149C848.659 106.733 852.91 107.165 855.967 105.198C861.15 104.815 864.66 102.736 867.741 100.162C868.123 99.5388 868.792 99.0432 869.484 98.5476L869.556 98.4995C870.296 98.1159 870.822 97.5724 871.681 97.2846L871.61 97.3165C871.61 97.3005 871.61 97.3005 871.61 97.3005C872.255 96.8529 872.899 96.4052 873.568 95.9576L873.592 95.9736C874.308 95.1263 875.025 94.279 875.741 93.4317C875.741 93.4157 875.741 93.4157 875.741 93.4157C875.693 93.4317 875.646 93.4317 875.598 93.4317C876.1 92.9201 876.625 92.4565 877.222 91.9928C877.723 90.1383 879.3 88.06 878.535 86.4613C877.031 83.2958 874.261 80.3702 872.016 77.3486C870.583 75.7019 869.198 74.0233 867.717 72.3926C866.356 70.8898 864.111 70.7459 861.794 70.8259C860.552 70.2184 859.406 69.467 858.045 69.0194C854.678 67.8843 851.215 66.8929 847.776 65.8538C847.274 65.614 846.725 65.5181 846.128 65.5501C844.958 65.1984 843.811 64.5589 842.641 64.5269C837.268 64.383 832.563 63.3439 828.049 61.2656C825.542 60.0985 821.769 59.2831 818.855 59.5709C814.628 59.9865 811.237 59.2032 807.535 58.2919C805.458 57.7803 803.069 57.8444 800.824 57.6685C800.8 57.6685 800.801 57.6685 800.801 57.6685C796.979 56.3575 793.182 55.0305 789.361 53.7036C787.904 52.8562 786.424 52.0089 784.967 51.1456C781.122 48.8754 776.704 46.9091 773.599 44.2552C769.324 40.6102 763.975 38.7557 757.455 38.0043C754.661 37.6366 751.843 36.9331 749.073 36.997C743.007 37.1409 736.845 37.3329 730.923 38.1642C725.048 38.9795 718.6 38.8676 713.656 41.7613C710.074 42.6885 706.468 43.6157 704.008 45.774C695.721 48.3 689.273 52.1848 684.903 57.5405C682.706 60.2263 680.723 62.9762 678.646 65.71C677.022 67.8683 675.78 70.1864 673.75 72.1369C670.311 75.4142 668.162 79.0113 666.514 82.8002C665.344 84.0952 664.149 85.3901 662.979 86.6851L663.29 86.8769C663.29 86.8929 663.29 86.9089 663.29 86.9249C663.194 86.8449 663.099 86.765 662.979 86.6851C660.567 87.2926 658.227 88.2039 655.719 88.4917C647.576 89.4509 640.387 91.8489 633.414 94.6786C629.211 96.3893 624.721 97.4444 619.61 97.4924C615.646 97.5244 612.016 98.6275 609.819 101.105C602.797 101.937 597.639 104.527 593.985 108.571C593.197 109.435 592.051 110.17 590.809 111.193C588.755 110.154 586.749 108.571 584.026 110.106C581.782 111.385 579.943 110.986 578.271 109.627C577.029 108.635 575.501 107.724 574.713 106.589C573.113 104.223 570.247 103.663 566.832 103.631C566.784 103.264 566.665 102.912 566.45 102.576C565.685 101.329 564.444 99.8425 562.414 100.29C557.064 101.489 554.342 99.8425 552.98 96.789C552.192 95.0464 550.329 94.4229 548.276 93.8153C545.935 93.1279 543.475 92.5683 541.087 91.9448C540.132 90.8257 539.129 89.8985 536.789 90.0104C535.642 90.0584 534.448 89.5627 533.278 89.3069C532.848 89.0192 532.323 88.8913 531.773 88.7954C530.961 88.5076 530.126 88.2199 529.314 87.9321C529.314 87.9321 529.314 87.9321 529.337 87.9321C524.728 86.2055 520.143 84.4629 515.51 82.7682C515.008 82.5764 514.268 82.6723 513.623 82.6244C512.167 81.4893 510.829 80.2583 509.253 79.2191C506.507 77.4286 505.241 75.702 506.817 72.9362C508.131 70.6181 508.632 67.8841 505.718 65.614C502.853 61.3774 503.88 56.869 503.617 52.4566C503.617 51.5773 503.641 50.6981 503.665 49.8348C503.784 49.4191 503.832 49.0033 503.784 48.5877C506.53 46.8131 505.957 44.543 505.384 42.4487C505.05 41.2816 503.808 40.0506 502.471 39.2193C499.079 37.093 495.616 37.8604 493.897 40.8979C490.1 47.5805 480.882 52.1368 470.469 52.5045C467.651 52.6164 464.547 52.009 462.206 53.7196C456.331 53.7996 450.432 53.8954 444.557 53.9754C443.96 53.8315 443.363 53.7676 442.743 53.7516C440.76 52.4407 438.754 51.1298 436.772 49.8348C435.721 46.7173 432.903 44.463 429.273 42.5126C426.742 41.1696 423.709 39.8907 422.18 38.1002C418.001 33.1921 410.932 30.3305 405.057 26.6534C400.782 23.9836 394.764 23.0083 388.937 22.7684C384.161 22.5766 379.289 23.1521 374.465 23.4079C371.097 23.5678 368.16 24.3512 365.891 26.0778C365.867 26.0778 365.867 26.0778 365.867 26.0778C363.694 26.3816 361.521 26.7013 359.348 27.005C350.917 28.1881 343.395 27.5966 338.356 22.193C338.379 19.7789 338.045 17.3329 338.547 14.9668C339.788 9.16342 329.281 5.15068 322.594 6.68545C317.053 7.94843 311.513 9.2754 306.068 10.7142C301.196 12.0092 296.372 13.3521 291.691 14.9188C286.198 16.7573 280.873 18.8517 275.451 20.8341C271.583 22.2409 267.738 23.6479 263.869 25.0547C261.003 25.6782 259.164 27.0531 257.851 28.7797L257.803 28.8117C257.086 29.1954 256.537 29.7069 255.749 30.0426C255.677 30.0586 255.629 30.0906 255.558 30.1545C254.913 30.5382 254.244 30.9059 253.6 31.2736C253.576 31.2736 253.576 31.2736 253.576 31.2736C249.062 32.073 245.217 33.5918 242.017 35.9099C240.25 37.1889 238.124 38.244 236.166 39.3951C234.16 40.6581 232.178 41.9371 230.196 43.2161C224.942 46.4135 221.216 50.2024 220.022 54.9666C220.022 54.9826 220.022 54.9825 220.022 54.9825C219.019 55.7979 217.252 56.5653 217.132 57.4446C216.487 62.2088 211.448 66.1736 211.783 71.0977C211.854 71.8651 210.732 72.6644 210.159 73.4317C210.159 73.4317 210.159 73.4317 210.183 73.4477C208.917 74.343 207.651 75.2383 206.409 76.1336C203.949 79.363 203.926 82.5924 206.195 85.9177C208.057 88.6355 209.753 91.4332 211.162 94.263C211.592 95.1422 210.804 96.2773 210.589 97.3005C209.06 98.0839 207.484 98.8353 205.979 99.6507C199.842 102.928 196.475 107.261 195.519 112.44C195.018 115.238 194.755 118.052 194.373 120.85C194.373 120.85 194.373 120.85 194.373 120.866C191.627 121.329 188.665 121.505 186.229 122.352C183.746 123.232 181.644 123.472 179.017 122.864C177.25 122.464 175.292 122.4 173.429 122.193C173.071 121.985 172.641 121.873 172.211 121.793C171.255 121.489 170.3 121.169 169.345 120.866C166.264 119.347 166.24 119.347 163.183 120.818V120.834L163.064 120.786C159.745 120.61 157.237 121.457 155.47 123.28C155.374 123.344 155.303 123.408 155.231 123.503C154.634 123.519 154.109 123.631 153.607 123.855C150.192 125.997 146.419 127.964 145.439 131.305C141.666 135.59 142.048 137.22 147.637 140.674V140.69C151.768 145.07 158.216 146.029 165.309 146.029C167.363 146.669 169.393 147.628 171.518 146.109C172.02 146.205 172.545 146.237 173.047 146.221C174.527 146.493 176.032 147.037 177.489 146.973C178.635 146.925 179.662 146.109 180.832 145.71C184.988 144.255 188.57 144.303 192.271 146.765C194.659 148.348 197.024 149.85 198.051 151.929C200.081 156.117 204.929 157.444 210.708 157.828C214.266 158.052 217.896 158.1 221.455 157.892C225.252 157.684 228.524 158.419 231.795 159.475C231.915 162.432 232.034 165.39 232.154 168.347C232.225 168.779 232.273 169.227 232.345 169.658C233.682 170.202 234.924 170.969 236.381 171.257C247.94 173.559 259.713 175.158 271.678 176.037C274.926 176.277 278.222 176.309 281.493 176.421C286.915 176.613 291.786 175.478 296.228 173.479C298.664 172.392 300.933 171.145 303.274 169.962C303.154 169.818 303.035 169.674 302.868 169.53C302.915 169.53 302.939 169.53 302.963 169.53L303.274 169.962C304.468 169.339 305.9 168.827 306.784 168.044C308.48 166.525 309.865 164.846 311.369 163.247C311.369 163.247 311.369 163.248 311.369 163.232C316.528 161.505 321.686 159.762 326.725 158.068C327.465 158.451 328.063 158.659 328.421 158.979C332.839 163.088 338.093 165.917 346.308 164.303C346.619 164.239 346.953 164.287 347.287 164.287C350.511 164.239 352.971 164.91 354.022 167.212C354.285 167.772 355.24 168.188 355.885 168.651C357.867 171.417 361.115 169.962 363.981 169.738C365.867 170.186 367.754 170.634 369.641 171.081C370.524 172.904 370.978 174.886 372.387 176.501C375.086 179.57 375.945 183.423 380.984 185.55C382.847 186.333 384.4 186.669 386.167 185.693C387.791 184.814 389.248 183.759 391.158 183.215C391.922 183.12 392.686 183.024 393.522 182.864C398.49 183.567 403.433 184.287 408.425 184.942C410.669 185.23 410.956 184.063 411.266 182.992C411.266 182.992 411.266 182.992 411.29 182.992C412.532 183.119 413.798 183.295 415.064 183.343C419.434 183.551 423.9 183.567 427.983 182.624C433.094 181.441 437.68 179.347 443.053 178.451C444.104 178.275 444.892 177.364 445.728 176.629C445.919 176.517 446.086 176.389 446.229 176.213C447.137 175.398 448.044 174.598 448.928 173.799C448.952 173.799 449.573 173.863 449.573 173.863L450.193 173.799C454.707 176.741 458.886 180.082 466.242 179.315C466.529 179.283 466.935 179.363 467.149 179.49C469.872 181.313 473.024 180.562 476.153 180.21C478.469 179.954 480.667 180.13 482.243 181.489C483.246 181.105 484.273 180.801 485.324 180.546C484.631 181.169 483.485 181.393 482.243 181.489C483.27 184.143 486.565 184.047 489.622 184.255C494.208 186.205 498.745 188.187 503.354 190.074C506.745 191.449 508.513 193.239 507.39 195.957C502.829 198.115 498.267 200.29 493.706 202.464C492.392 203.327 491.103 204.207 489.789 205.086C489.192 205.581 488.595 206.077 487.998 206.573L487.974 206.605C486.995 207.132 485.395 207.532 485.085 208.187C482.864 213.015 480.881 217.908 478.899 222.784C478.804 222.991 479.664 223.375 480.07 223.663V223.679C481.288 225.118 482.505 226.573 483.723 228.027C484.488 228.683 485.109 229.706 486.112 229.93C488.524 230.457 490.052 231.257 490.291 233.047C490.386 233.671 490.912 234.278 491.222 234.902C491.987 236.277 493.348 236.996 495.64 236.932C496.93 236.9 498.244 237.06 499.533 237.124C500.894 238.563 502.877 239.378 505.384 239.634C507.199 241.552 507.199 241.552 504.285 242.704C504.023 242.815 503.832 243.007 503.617 243.167C492.679 244.398 481.885 246.349 470.636 245.837L470.541 245.869C469.084 245.102 467.651 244.334 466.194 243.567L466.099 243.535C465.311 242.64 463.878 242.384 462.899 242.991C459.913 244.83 456.188 245.341 452.51 246.029C451.865 246.029 451.221 246.013 450.576 246.013C447.471 246.285 444.151 246.173 441.357 246.94C438.396 247.739 435.793 247.244 433.023 247.132C433.07 247.1 433.094 247.068 433.142 247.036H433.166C433.142 247.036 433.142 247.036 433.142 247.036H433.166C432.306 246.796 431.255 246.205 430.682 246.365C423.995 248.235 417.189 247.308 410.43 246.844C406.872 246.588 403.338 246.253 399.803 245.965C396.627 243.279 391.827 242.927 387.504 243.039C379.313 243.231 371.336 243.471 364.363 239.826C363.479 239.362 361.855 239.522 360.566 239.41V239.394C360.661 238.163 360.518 236.9 360.948 235.717C361.449 234.342 360.566 233.703 358.894 233.383C355.694 232.76 352.637 233.255 349.58 234.023C347.693 234.486 345.807 234.358 344.684 232.935C344.374 232.456 344.04 231.576 343.753 231.592C341.556 231.624 339.359 231.816 337.162 231.992C334.988 232.168 332.791 232.664 330.666 232.568C326.2 232.344 321.758 231.816 317.316 231.417C316.958 231.049 316.385 230.713 316.289 230.313C315.214 226.525 312.539 224.159 306.068 224.622C304.587 224.718 303.011 223.967 301.411 223.775C299.333 223.519 297.637 224.382 297.16 225.837C296.419 228.155 295.727 230.489 295.01 232.807C292.288 233.287 289.064 232.408 286.795 234.182C281.995 237.923 278.747 242.624 271.869 245.134C271.368 245.309 270.938 245.789 270.77 246.189C269.744 248.555 267.379 250.345 265.278 252.296C264.06 253.399 264.155 255.142 263.654 256.596C263.415 256.724 262.937 256.9 262.961 256.98C263.08 257.316 263.367 257.62 263.606 257.939C263.606 257.939 263.606 257.939 263.582 257.939C266.185 261.744 266.185 265.725 265.516 269.754C264.466 271.065 263.702 272.568 262.269 273.655C256.036 278.307 253.289 284.158 250.137 289.77C247.653 294.134 244.477 297.987 239.509 301.216C232.823 304.462 231.198 306.828 233.037 311.336C233.682 312.935 235.02 314.422 236.023 315.973C235.951 316.388 236.023 316.804 236.261 317.204C236.691 318.035 237.121 318.866 237.551 319.698C237.623 319.873 237.694 320.033 237.814 320.193C237.909 320.833 237.838 321.52 238.124 322.128C240.56 327.068 242.304 332.072 242.089 337.347C242.041 338.546 243.187 339.761 243.784 340.96C246.984 345.948 251.402 349.977 260.31 350.601C262.245 350.745 264.179 351.048 265.994 351.48C267.761 351.912 269.863 352.327 270.985 353.223C274.902 356.372 279.655 358.307 285.601 359.25C287.679 359.585 289.661 360.593 291.38 361.536C293.816 362.895 296.539 363.263 299.548 363.263C303.464 363.263 307.31 363.167 310.987 361.984C316.289 360.273 321.591 360.465 326.988 362.047C329.328 362.735 331.979 362.895 334.487 363.295C335.991 365.533 338.165 367.387 341.341 368.698C347.932 371.384 352.924 375.605 360.351 377.539C361.115 377.731 361.521 378.546 362.094 379.074C362.787 381.456 363.384 383.87 365.844 385.82C365.772 386.22 365.867 386.588 366.106 386.956C365.987 388.442 366.13 389.961 365.652 391.4C364.745 394.102 365.557 396.42 368.136 398.53C369.33 399.521 370.453 400.545 371.623 401.552C371.599 401.983 371.766 402.399 372.1 402.767C372.411 402.703 372.721 402.671 373.008 402.655C372.698 402.703 372.387 402.735 372.1 402.767C372.626 403.662 373.127 404.557 373.653 405.453C373.509 406.364 373.509 407.243 373.653 408.09C373.653 408.954 373.677 409.833 373.82 410.68C374.823 416.084 376.017 421.44 381.605 425.82C383.826 427.563 384.71 427.883 388.292 427.019C388.818 426.939 389.367 426.795 389.868 426.604C392.686 427.579 395.672 428.346 395.576 431.096C395.505 432.967 395.266 435.125 396.484 436.643C398.155 438.722 402.359 437.475 405.153 438.386C405.248 439.905 405.296 441.44 405.487 442.942C405.702 444.493 407.469 445.325 409.428 445.388C411.983 445.484 414.562 445.085 417.117 444.909C417.738 445.021 418.383 445.069 419.028 445.037C421.153 446.939 423.948 448.73 422.658 451.432C421.512 453.798 422.992 455.46 424.879 457.379C427.864 460.416 431.04 463.518 431.208 467.403C429.56 467.898 428.652 468.65 429.13 469.913C429.512 470.52 429.918 471.112 430.276 471.703C433.954 477.858 439.996 481.759 450.576 481.823C452.701 481.839 454.994 482.559 456.952 483.262C461.394 484.861 465.478 485.053 469.657 482.878C470.851 482.239 472.618 482.111 474.123 481.743C480.213 481.376 481.216 480.88 481.956 477.683C482.147 476.835 481.98 475.972 482.1 475.109C482.314 473.654 483.509 472.758 485.73 472.615C488.548 472.423 491.604 472.918 493.969 471.384C493.873 471.304 493.778 471.224 493.682 471.144C493.706 471.144 493.706 471.144 493.706 471.144L493.969 471.384C498.411 471.176 502.662 473.382 507.271 471.895C507.629 471.783 509.134 472.519 509.277 472.982C510.686 477.267 516.226 476.883 520.74 477.683C525.588 475.924 530.914 476.803 536.024 476.483C537.171 476.42 538.245 475.716 539.344 475.316C542.138 473.894 545.219 472.95 548.753 472.774C550.258 474.757 552.503 476.244 555.918 476.404C559.404 476.563 563.011 476.499 565.112 474.037C568.121 473.398 570.533 474.677 573.208 475.125C576.193 475.636 579.179 476.627 582.283 475.412C582.976 475.332 583.644 475.268 584.313 475.205C584.982 474.789 585.579 474.357 586.104 473.878L586.152 473.814C588.636 473.062 590.761 472.151 590.236 469.961C590.355 469.177 590.928 468.202 590.451 467.659C589.878 466.987 588.206 466.811 587.346 466.204C585.221 464.717 585.746 463.166 588.683 462.159C592.934 460.704 596.899 458.674 602.2 459.297C602.869 459.377 603.777 458.674 604.589 458.322L605.377 458.258C606.38 458.37 607.096 458.85 607.884 459.217C608.792 459.393 609.699 459.553 610.607 459.713C615.216 460.528 616.314 461.919 614.38 464.669C613.711 465.612 612.661 466.428 611.801 467.307C610.463 467.802 610.296 468.25 611.92 468.634C612.613 469.049 613.234 469.561 614.046 469.849C619.706 471.911 620.709 475.252 619.658 479.105C619.395 480.113 618.512 481.072 617.915 482.047C617.294 482.255 617.031 482.591 616.935 482.99C616.482 483.422 616.052 483.854 615.598 484.285C610.774 484.813 608.768 487.595 605.926 489.689L605.902 489.641C603.347 490.424 600.553 490.984 598.236 492.023C595.967 493.046 595.561 494.821 596.039 496.643C596.421 498.066 597.567 498.929 599.741 499.153C599.741 499.137 599.741 499.137 599.765 499.137C600.409 500.048 601.054 500.96 601.723 501.871C601.723 501.887 601.723 501.887 601.723 501.887C603.036 503.246 604.326 504.589 605.616 505.932C605.544 507.019 605.735 508.154 605.329 509.177C603.896 512.902 600.266 513.973 595.06 512.327C593.89 511.959 592.504 511.671 591.669 511.064C588.755 508.953 585.173 508.522 581.137 508.618C579.202 508.666 576.957 508.714 575.381 508.122C571.083 506.523 568.026 507.69 564.969 509.577C563.154 510.696 561.649 510.392 560.073 509.161C559.405 508.634 557.47 508.186 556.825 508.458C553.315 509.945 548.705 510.376 546.532 513.142L547.058 513.51V513.526C546.867 513.398 546.699 513.27 546.532 513.142C542.783 513.67 538.986 513.558 535.236 514.565C531.797 515.492 527.737 515.364 523.964 515.764C521.122 516.068 518.304 516.451 515.462 516.771C511.57 517.203 508.895 518.13 509.348 521.359C509.659 523.693 506.96 524.093 504.047 523.837C502.47 522.398 500.297 522.223 498.029 522.814C495.258 523.534 492.608 524.013 489.67 523.15C484.703 521.695 481.001 523.31 477.753 525.628C477.204 526.028 476.798 526.923 477.108 527.323C477.395 527.738 478.637 527.978 479.52 528.026C481.097 528.106 482.72 527.914 484.32 527.994C487.019 528.138 487.425 528.633 487.712 531.703C484.297 532.055 482.434 533.574 481.264 535.604C481.24 535.604 481.24 535.604 481.24 535.604C479.257 535.684 476.989 535.876 476.368 537.235C474.983 540.352 471.998 541.151 467.58 540.768C465.359 540.576 463.066 540.992 460.845 540.832C456.045 540.496 452.008 541.535 448.283 543.438C438.945 546.699 438.945 546.699 430.802 546.379C430.443 546.075 430.014 545.9 429.56 545.804C428.915 545.516 428.294 545.228 427.601 545.1C423.804 544.397 421.249 542.83 420.365 540.32C419.052 536.531 415.016 534.948 409.857 534.693C406.084 534.501 403.051 533.589 399.97 532.311C398.084 531.527 395.91 531.048 393.88 530.424C393.26 530.088 392.543 530.008 391.803 529.976C390.465 529.673 389.152 529.385 387.815 529.097C385.952 527.355 384.113 525.628 382.25 523.885C382.155 523.454 381.916 523.054 381.558 522.686C381.128 522.111 380.937 521.215 380.268 521.024C375.563 519.665 370.787 518.434 366.011 517.155C360.709 514.021 355.335 513.43 349.771 516.915C348.863 517.506 347.741 518.146 346.571 518.322C341.723 519.025 342.105 521.503 342.081 523.885C341.46 524.253 340.839 524.637 340.218 525.004C338.117 525.164 336.397 524.781 335.347 523.438C333.293 520.848 330.069 519.665 325.722 520.032C321.997 520.336 318.701 519.441 315.429 518.498C312.922 516.947 309.913 517.283 306.951 517.458C305.638 517.49 304.348 517.538 303.035 517.57C303.035 517.57 303.035 517.57 303.035 517.586C298.951 517.251 294.915 518.881 290.64 516.515C287.822 514.949 283.356 516.691 279.702 517.283C278.914 516.899 278.174 516.483 277.362 516.148C270.341 513.126 263.128 512.327 255.63 515.412C252.621 516.659 249.373 516.052 246.196 515.844C245.766 513.43 243.593 511.831 240.321 511.16C237.097 510.488 234.064 509.241 230.196 510.52C225.372 512.135 220.141 513.254 214.553 512.103C214.075 510.248 212.857 508.33 213.263 506.571C213.932 503.454 210.851 504.333 208.654 504.125C205.86 502.143 202.111 503.326 198.887 502.814L198.672 502.958H198.648C198.719 502.91 198.791 502.862 198.887 502.814C196.355 499.809 192.988 498.434 187.949 500.208C187.686 500.304 187.304 500.24 186.994 500.24C186.349 499.249 185.561 498.29 185.131 497.251C184.51 495.796 183.173 495.013 180.952 495.124C176.318 495.364 173.644 493.83 172.235 491.048C171.112 488.81 168.605 488.202 165.381 488.346C164.091 488.41 162.801 488.346 161.488 488.346C160.246 487.706 158.909 487.115 157.762 486.395C155.494 484.973 153.655 482.766 151.004 482.223C148.305 481.647 144.866 482.702 141.762 483.038C141.117 482.623 140.472 482.207 139.803 481.791C139.827 481.375 139.827 480.96 139.875 480.544C140.926 480.145 141.977 479.745 143.027 479.345C142.407 478.658 141.69 477.347 141.189 477.395C137.63 477.666 136.054 475.844 133.881 474.613C125.116 469.561 115.11 467.275 103.479 468.458C98.8462 468.922 93.8072 467.818 88.601 465.564C87.7891 465.212 86.8338 464.781 85.974 464.813C81.6515 464.941 77.2095 466.284 73.1973 463.854C72.8152 463.614 70.9764 464.397 69.8539 464.765C66.0567 465.996 65.985 466.012 63.1908 464.093C62.0684 463.31 60.6118 462.575 60.0386 461.631C58.343 458.898 54.7129 457.954 51.2262 456.803C45.6379 451.544 43.4407 445.82 46.4021 439.521C47.1185 437.954 46.4259 436.819 44.4915 436.26C40.0973 434.981 39.2616 432.583 39.381 429.785C39.4049 428.698 39.4526 427.595 39.5004 426.508C40.0736 426.3 40.6704 426.108 41.2197 425.868C46.1632 423.71 46.8798 422.207 42.9154 419.953C39.6436 418.098 40.0734 415.828 38.9987 413.622C37.6614 410.872 37.4466 408.714 40.3363 406.348C41.6259 405.293 40.1213 404.365 38.0675 404.461C36.3002 404.557 35.8464 403.838 35.5837 402.927C35.7748 402.703 35.9181 402.463 36.0375 402.239C37.0645 400.752 38.0197 399.234 39.2138 397.811C41.1243 395.525 40.2645 393.782 37.3748 392.279C37.9241 391.08 38.6645 389.913 38.9749 388.698C39.5481 386.236 40.5033 383.71 37.6136 381.536C37.6614 381.216 37.6853 380.912 37.6615 380.593C37.6615 380.577 37.6615 380.577 37.6615 380.577C40.1929 378.115 42.3422 375.429 45.3274 373.238C51.7277 368.554 57.3877 363.742 57.4832 356.964C57.4832 356.452 58.534 355.956 59.1072 355.445C62.164 355.077 64.8388 355.813 67.3941 356.804C69.9017 357.779 72.051 357.219 73.0779 355.733C75.4661 352.247 80.2186 350.904 84.78 349.338C87.6458 348.363 90.6788 347.563 93.4252 346.46C95.0969 345.789 96.4819 344.829 97.9387 343.95C98.1297 343.854 98.321 343.742 98.4881 343.614C104.172 344.733 110.023 345.533 115.802 344.574C119.217 343.998 122.131 344.238 125.259 344.909C129.295 345.773 133.331 346.668 137.463 347.211C141.284 347.707 145.129 347.707 148.472 349.482C150.67 350.649 153.488 350.169 155.876 349.258C159.864 347.739 164.187 347.036 168.652 346.38C172.712 345.773 176.605 344.43 180.283 343.055C183.555 341.824 185.561 339.809 185.059 337.076C185.609 336.532 186.229 336.036 187.017 335.653V335.669C187.376 335.397 187.567 335.077 187.734 334.725C188.164 334.166 188.594 333.606 189.023 333.047C189.023 333.063 189.023 333.063 189.023 333.063C196.833 333.271 200.558 329.706 203.854 325.789C205.096 324.334 204.451 322.703 202.302 321.792C199.507 320.625 196.713 319.538 193.251 321.025C189.119 322.799 184.749 322.927 180.163 321.616C178.11 321.025 175.554 321.136 173.572 320.465C166.622 318.131 159.338 317.827 151.792 318.355C149.929 318.483 147.756 318.371 146.084 317.843C140.281 316.037 134.143 315.909 127.958 315.893C125.498 315.461 123.086 314.742 120.602 314.662C114.537 314.438 108.423 314.39 102.572 315.797C102.548 315.797 102.548 315.797 102.524 315.797C101.449 315.397 100.446 314.885 99.3 314.614C94.6431 313.527 94.5715 313.559 94.4283 310.873C94.3327 309.386 94.4521 307.883 94.5477 306.396C94.6432 305.213 95.6701 304.51 97.2941 304.062C98.4404 303.742 99.4195 303.183 100.47 302.719C102.429 302.272 104.363 301.824 106.297 301.376C109.832 301.392 113.366 301.536 116.877 301.344C118.644 301.248 120.34 300.513 122.059 300.081C134.836 299.442 147.063 302.224 159.601 303.039C161.583 303.167 163.375 304.542 165.261 305.341C164.903 306.364 163.757 307.691 164.33 308.347C165.93 310.169 172.521 311.56 174.814 310.281C179.208 307.867 185.417 306.684 187.28 302.4C188.116 300.465 187.758 299.138 184.844 299.01C181.381 298.85 178.898 297.14 175.817 296.9C172.282 296.644 169.823 295.397 167.029 294.278C165.715 293.75 163.948 293.703 162.419 293.399C153.105 291.512 142.98 292.328 133.881 289.642C133.331 289.482 132.591 289.626 131.946 289.562C125.928 288.97 119.814 289.034 113.796 288.379C111.265 288.123 110.453 289.37 110.071 290.761C105.557 291.209 101.067 291.64 96.5776 292.088C94.7148 290.313 92.9475 288.491 90.9414 286.78C90.5593 286.476 88.816 286.412 88.41 286.7C86.8338 287.771 85.9024 289.402 84.1113 290.169C79.2395 292.28 78.5947 295.349 78.7858 298.754C78.7858 299.186 78.8095 299.634 78.8095 300.081C76.1826 300.497 73.5557 300.913 70.9048 301.328C68.3495 300.321 66.1044 301.312 64.1461 302.112C62.952 302.607 63.7879 303.567 64.8625 304.126C64.8625 304.142 64.8625 304.142 64.8625 304.142C64.8864 304.941 64.9105 305.741 64.9344 306.54C64.3851 307.084 63.6925 307.531 62.9044 307.947C62.2835 307.931 61.6624 307.963 61.0415 308.027C60.3967 308.443 59.728 308.858 59.0593 309.274C59.0593 309.258 59.0594 309.258 59.0356 309.258C48.7903 314.102 41.8646 320.865 35.4643 327.883C33.2194 330.361 32.3598 333.095 35.3211 335.749C34.7241 337.012 34.103 338.291 33.506 339.57C35.6314 339.634 37.0644 340.129 38.0913 341.024C36.4912 340.657 34.9389 340.193 33.506 339.57C31.9298 341.168 30.7119 343.055 28.6342 344.286C26.3177 345.661 23.3324 346.668 20.4188 347.419C17.6963 348.123 16.3829 349.386 15.0933 350.952C12.8484 353.686 11.5349 356.484 11.8214 359.665C11.9647 361.136 12.1797 363.055 10.9856 364.078C7.64214 366.972 7.9526 371.352 2.38817 373.303C1.71948 373.526 1.24189 374.342 1.12249 374.917C0.453799 378.115 -1.07458 381.36 2.00615 384.398C0.549372 386.892 1.55236 389.05 4.1077 390.984C4.05993 391.848 4.01217 392.727 3.98829 393.606C3.91664 398.594 4.72867 403.63 2.12556 408.522C1.26582 410.137 0.191007 412.135 0.907457 413.59C2.6747 417.155 1.81501 420.433 0 423.614C1.50455 424.413 4.53743 422.671 4.08367 425.181C3.94038 426.044 4.05989 426.939 4.05989 427.803C2.12547 431.847 0.859647 435.828 4.91953 439.697C6.37632 441.088 5.61215 442.591 4.60912 444.062C3.67773 445.42 2.07766 447.003 2.45977 448.266C3.27174 450.936 3.70171 453.974 7.80936 455.652C7.54666 457.267 7.30779 458.882 7.0451 460.496C10.8423 461.488 9.88692 464.285 11.7258 466.028C12.1796 468.138 11.6064 469.897 8.62119 471.144C7.68981 471.527 6.54367 472.631 6.78249 473.174C8.40644 476.915 9.98245 480.736 12.4423 484.269C13.3259 485.564 16.6933 486.012 18.6277 487.099C20.8726 488.346 22.8548 489.833 24.8369 491.288C27.5117 493.206 27.4401 493.206 25.0042 496.212C24.5982 496.691 24.7415 497.363 24.6459 497.954C25.5057 497.746 26.3415 497.507 27.2251 497.347C27.7983 497.235 28.7298 497.059 28.9925 497.235C31.3329 498.961 33.9359 497.618 36.348 497.459C40.0496 497.203 38.9749 494.837 39.8346 493.334C39.9301 493.126 40.0735 492.902 40.2884 492.758C40.7422 492.471 41.2676 492.215 41.7692 491.927C42.0557 492.263 42.7005 492.646 42.605 492.918C41.8408 494.997 40.0735 497.091 43.3452 498.945C44.3244 500.224 47.214 500.592 46.7125 502.638C46.1871 504.733 50.3903 503.965 51.1784 505.532C51.8948 506.971 53.0412 508.314 54.0442 509.673C54.1397 509.801 54.6174 509.913 54.8563 509.881C57.8415 509.465 58.4624 510.824 59.6804 512.231C60.7551 513.446 63.0716 514.181 64.9344 515.044C65.3643 515.252 66.6061 515.22 66.6777 515.092C68.23 512.375 74.6542 512.742 74.9169 509.257C75.0124 507.626 76.4691 507.546 78.2125 508.042C79.717 508.474 81.126 509.033 82.5828 509.529C83.9441 512.151 85.3053 514.773 86.6427 517.379V517.395C85.8307 517.059 84.9949 516.723 84.1829 516.371C80.4335 514.741 78.738 514.901 76.2782 517.171C75.2035 518.162 75.4901 518.929 76.6364 520C78.4275 521.711 74.7736 521.647 74.081 522.654C73.484 523.534 73.484 524.845 74.6781 524.653C79.3111 523.853 78.3319 527.195 80.6723 527.962C80.6723 528.378 80.6961 528.793 80.7917 529.209C80.0991 531.831 79.4065 534.469 78.7139 537.107C76.5168 539.297 74.487 541.407 79.526 543.262C80.1947 543.502 80.4095 544.733 80.2662 545.468C80.0752 546.491 79.2394 547.466 78.929 548.49C78.4274 550.104 79.3828 550.76 81.8426 550.616C83.4188 550.536 84.9949 550.456 86.5711 550.376C87.6696 551.623 91.0847 552.055 90.1055 553.909C89.604 554.9 87.574 555.54 86.4755 556.179C87.98 557.906 89.4608 559.585 90.9176 561.279C92.852 563.565 94.0939 565.708 93.2342 568.665C92.3505 571.783 94.5953 574.676 100.255 575.364C100.255 575.364 100.255 575.364 100.255 575.38C100.613 576.195 100.972 577.011 101.33 577.842C102.428 580.48 103.288 580.4 107.659 584.652C110.477 587.418 117.068 588.777 115.778 593.317C115.731 593.429 116.781 593.749 117.378 593.861C120.244 594.437 120.865 596.227 122.035 597.714L122.059 597.73C119.695 598.481 118.764 599.456 119.647 601.375C120.483 603.197 121.749 605.1 124.519 604.796C128.34 604.381 130.466 605.564 133.14 606.859C134.812 607.69 137.248 608.154 139.373 608.201C143.027 608.281 145.105 610.056 147.828 611.143C148.64 614.932 153.034 615.667 157.595 616.163C159.554 616.371 160.007 616.946 160.127 618.273C160.318 620.304 165.763 621.838 161.44 624.396C161.345 624.444 161.774 625.212 162.109 625.26C165.643 625.851 165.357 627.69 165.213 629.432C165.142 630.28 164.593 631.111 164.402 631.958C163.59 635.38 164.927 636.403 171.208 637.218C173.954 638.257 177.178 638.865 178.874 640.879C181.501 644.013 185.752 645.148 190.815 645.276C195.137 650.248 195.137 650.248 202.588 653.685C203.114 653.925 203.544 654.484 204.045 654.516C205.55 654.564 207.054 654.436 208.583 654.372C209.18 656.483 209.18 656.483 212.523 655.683C212.547 656.099 212.571 656.515 212.595 656.93C213.263 657.378 213.789 657.889 214.457 658.321C216.153 660.943 219.759 662.861 223.317 662.941C228.834 663.053 233.706 665.1 239.151 664.924C239.318 665.004 239.605 665.004 240.082 664.892C240.632 664.94 241.205 664.972 241.754 665.004C241.635 666.091 241.515 667.162 241.372 668.489C243.975 668.729 246.483 669.065 248.99 669.192C252.334 669.336 254.412 670.232 254.698 672.614C254.77 673.253 255.367 673.861 255.534 674.5C256.441 677.554 255.629 678.257 250.662 679.456C248.226 680.048 245.838 680.799 243.617 681.662C242.184 682.238 240.99 682.781 239.151 682.478C237.002 682.126 236.19 683.021 236.381 684.316C236.548 685.483 237.384 686.475 239.294 686.538C243.283 686.698 246.578 685.611 249.755 683.997C253.528 682.078 255.056 682.686 255.844 685.995C256.107 687.018 255.988 688.441 256.919 688.953C260.095 690.679 263.463 692.47 267.188 693.493C270.102 694.308 273.445 694.42 276.168 695.779C277.314 696.355 278.532 695.875 279.392 695.028C281.04 693.413 281.278 691.814 279.607 690.168C277.386 687.961 277.147 685.723 279.296 683.421C276.717 681.534 271.009 683.885 269.72 680.24C273.899 676.786 277.386 681.598 281.374 680.719C282.52 680.383 284.073 680.256 284.717 679.664C286.771 677.857 288.467 675.875 290.33 673.925C291.357 674.516 292.527 675.188 294.079 676.099C295.631 674.692 297.16 673.397 298.449 672.022C298.927 671.527 298.832 670.791 298.975 670.152C299.046 669.288 299.094 668.409 299.166 667.53C299.094 665.771 299.023 664.013 298.927 662.254C299.858 660.016 299.858 660.016 302.939 661.055C303.608 664.077 306.617 665.531 310.701 666.283C312.993 667.738 315.238 669.128 315.071 671.606C314.904 674.037 317.865 674.037 320.444 674.164C320.97 674.804 321.519 675.459 322.044 676.099C322.188 676.355 322.355 676.594 322.618 676.802L322.594 676.818C323.859 678.129 325.125 679.456 326.391 680.767C326.606 682.19 326.128 683.757 328.421 684.7L328.445 684.716C328.875 685.515 328.97 686.49 329.758 687.082C333.03 689.56 334.32 692.582 335.179 695.811C338.284 696.291 341.651 694.724 344.326 696.514C346.26 700.591 347.335 700.959 352.207 699.2C354.141 699.376 356.506 699.472 356.96 700.943C357.413 702.43 358.058 703.181 360.518 703.309C362.381 703.405 364.196 704.012 366.035 704.396C366.584 704.876 367.348 705.227 367.802 705.771C367.778 706.203 367.802 706.618 367.945 707.034C367.754 707.45 367.682 707.881 367.682 708.329C365.772 709.288 365.987 710.711 365.844 712.07C365.39 712.661 364.793 713.189 364.028 713.621V713.637C361.855 714.708 361.736 716.259 362.189 717.793C363.097 720.991 364.196 724.172 365.294 727.338C366.846 731.75 366.249 732.709 360.446 734.66C359.563 734.947 358.703 735.331 357.771 735.459C353.401 736.099 348.768 736.258 344.708 737.378C340.648 738.513 338.38 741.694 333.555 742.366C332.433 742.509 331.526 743.357 330.499 743.884C325.889 745.547 321.304 747.018 315.74 746.842C312.133 746.73 309.578 748.696 308.528 750.727C307.477 752.725 309.769 754.532 312.205 755.619C313.972 756.418 316.361 756.882 318.534 756.946C324.385 757.17 330.284 756.978 336.158 757.154C342.989 757.361 349.031 756.146 354.309 753.269C361.449 753.285 368.685 752.501 375.563 754.548C377.33 755.427 378.931 756.546 380.913 757.122C383.229 757.809 385.999 757.825 388.34 758.465C393.068 759.76 397.726 761.023 399.756 764.796C401.451 767.977 404.914 770.151 410.622 770.295C413.464 770.375 416.258 771.11 419.1 771.558C423.279 775.699 431.661 775.635 436.366 779.264C439.136 779.136 441.835 780.671 444.653 779.44C445.632 779.456 446.635 779.44 447.614 779.488C452.582 779.743 453.632 780.127 454.421 782.989C455.065 785.275 456.618 787.497 454.755 790.023C453.895 791.174 454.612 793.045 455.233 794.468C455.973 796.114 457.406 797.633 458.552 799.216C458.122 800.703 456.809 802.381 457.454 803.612C458.624 805.898 458.17 807.721 456.857 809.831C456.164 810.902 456.57 812.437 457.048 813.652C457.549 814.883 459.078 815.922 459.531 817.153C459.961 818.336 460.104 819.775 459.484 820.862C457.525 824.268 457.358 824.22 458.361 827.865C460.248 828.057 462.182 828.248 464.093 828.44C464.093 828.824 464.236 829.192 464.522 829.511C464.403 830.375 464.26 831.238 464.14 832.101C459.101 833.908 458.457 834.691 460.534 837.265C461.418 838.352 462.875 839.232 464.069 840.191V840.207C464.069 840.207 464.069 840.207 464.069 840.191C464.618 840.894 465.167 841.598 465.717 842.301C465.812 842.493 465.956 842.685 466.147 842.845C466.839 845.658 464.403 848.744 467.89 851.35C468.368 851.702 468.2 852.597 467.962 853.188C466.982 855.666 465.693 858.048 462.23 859.551C449.286 860.287 436.318 859.615 423.374 859.535C421.153 858.272 419.028 858.432 416.926 859.679L417.404 859.999C417.356 860.031 417.284 860.063 417.237 860.095C417.141 859.951 417.046 859.807 416.926 859.679C411.147 859.647 405.368 859.615 399.588 859.599L399.612 859.583C398.108 858.48 396.293 858.384 394.74 859.311C392.997 860.351 393.761 861.518 395.122 862.525C394.43 863.18 393.881 864.235 392.973 864.427C389.415 865.147 389.056 867.337 387.647 869.064C385.785 869.096 383.922 869.255 382.083 869.16C378.62 868.984 375.921 870.071 373.342 871.366C371.288 872.405 371.766 874.052 371.718 875.522C369.712 876.801 367.706 878.08 365.7 879.359C361.712 879.935 360.852 882.253 360.398 884.315C359.968 886.234 359.157 887.625 356.553 888.488C354.762 889.079 354.476 890.039 355.288 891.19C357.533 894.435 356.362 897.057 352.159 899.183C351.419 899.567 350.917 900.159 350.296 900.67C348.505 900.702 345.664 900.302 345.544 901.693C345.353 903.852 348.529 903.068 350.487 903.244C351.084 903.292 351.705 903.164 352.326 903.132C353.855 903.868 354.476 904.747 353.067 905.818C351.61 906.937 349.676 907.88 348.673 909.159C347.741 910.326 346.356 912.037 350.153 912.645C351.992 912.932 352.207 914.131 352.446 915.234C353.162 918.432 350.726 921.102 348.911 923.692C352.876 925.93 356.338 927.88 359.801 929.831C359.443 933.508 360.876 937.185 358.918 940.878C358.13 942.365 358.918 944.267 359.252 945.946C359.348 946.473 360.398 947.353 360.876 947.321C365.294 946.905 366.727 949.783 369.808 950.822C372.65 954.723 371.718 958.48 368.399 961.997C365.103 965.498 361.76 968.983 358.034 972.293C353.735 976.129 353.019 978.671 357.342 982.284C362.476 986.585 368.279 990.518 377.522 990.422C377.617 990.326 377.713 990.214 377.808 990.118H377.832L377.522 990.422C379.766 991.541 381.796 993.156 384.328 993.683C388.65 994.579 393.451 995.89 397.534 992.996C407.589 991.957 416.09 988.184 425.404 985.834C427.625 985.258 429.273 983.659 431.208 982.524C438.945 982.428 446.707 982.316 454.468 982.221C457.74 983.1 461.036 983.979 464.331 984.858C466.123 985.354 467.961 985.77 469.705 986.345C473.789 987.704 477.825 989.127 481.884 990.518V990.534C483.58 993.236 488.022 992.644 490.96 993.891C498.291 996.993 505.575 997.328 512.143 992.82C514.196 991.413 516.632 991.205 519.331 991.669C519.331 991.669 519.331 991.669 519.355 991.669C521.385 997.153 523.916 1002.57 522.985 1008.34C521.982 1009.46 520.668 1010.5 520.047 1011.7C517.755 1016.02 514.483 1019.98 510.901 1023.87C504.047 1031.27 505.838 1039.21 515.677 1044.84C517.898 1046.11 520.43 1047.13 522.746 1048.31C526.09 1050.02 529.361 1051.78 532.681 1053.52C533.326 1054.23 533.994 1054.93 534.663 1055.63C534.759 1055.79 534.878 1055.94 535.069 1056.08C535.069 1056.07 535.069 1056.07 535.069 1056.07C535.571 1057.07 535.809 1058.19 536.621 1059.05C541.708 1064.47 548.992 1068.36 556.825 1071.84C558.401 1074.03 561.625 1074.8 564.563 1075.84C565.041 1076.11 565.447 1076.54 565.996 1076.66C571.25 1077.58 576.456 1078.81 581.829 1079.28C591.358 1080.11 601.102 1081.01 609.89 1077.1C613.759 1076.9 617.986 1077.31 621.353 1076.34C626.488 1074.88 631.336 1074.37 636.901 1074.63C644.185 1074.98 650.728 1072.74 657.104 1070.55C659.158 1072.93 662.454 1074.11 665.773 1072.48C670.956 1069.96 676.878 1070.09 682.586 1069.32C685.762 1071.99 686.527 1072.21 689.918 1070.81C690.133 1070.73 690.324 1070.65 690.539 1070.53C690.539 1070.53 690.539 1070.53 690.563 1070.53C692.76 1070.53 695.005 1070.65 696.557 1069.27C701.142 1067.51 705.727 1065.74 710.313 1063.98C715.137 1063.34 719.555 1062.41 721.537 1058.81C721.991 1057.98 723.949 1057.44 725.358 1056.93C728.487 1055.83 731.759 1054.88 734.911 1053.76C736.272 1053.27 738.35 1052.61 738.541 1051.84C739.592 1047.83 745.18 1046.11 747.879 1042.97C749.001 1042.57 750.482 1042.38 751.15 1041.77C754.733 1038.48 757.622 1034.77 761.754 1031.81C765.408 1029.17 765.36 1026.3 765.599 1023.26C765.599 1023.24 765.599 1023.24 765.599 1023.24C765.551 1023.24 765.527 1023.24 765.503 1023.24C766.22 1022.96 766.912 1022.67 767.629 1022.4C768.202 1022.27 768.775 1022.12 769.133 1021.77C769.563 1021.47 770.232 1021.2 770.375 1020.83C771.689 1017.71 774.053 1015.54 779.45 1015.22C781.122 1015.12 783.725 1014.18 784.059 1013.3C785.444 1009.81 790.866 1008.86 793.23 1006.11C796.382 1004.46 798.293 1002.44 799.439 999.79C800.657 996.929 803.093 994.323 805.004 991.605C807.416 990.838 808.443 989.463 808.729 987.768C809.971 985.13 811.428 982.54 812.335 979.87C812.622 979.039 811.38 977.968 810.831 977.009C811.786 975.922 813.004 974.882 813.625 973.715C814.127 972.788 814.58 971.397 813.911 970.726C810.114 966.921 812.622 963.372 814.389 959.759C817.637 958.544 820.861 958.032 824.515 959.167C828.026 960.254 831.751 961.086 835.763 960.318C838.963 963.228 842.928 964.171 847.919 962.428C853.627 960.382 859.812 959.311 866.069 958.368C867.287 958.176 868.41 957.648 869.58 957.265C872.923 956.561 876.386 956.002 879.61 955.106C889.091 952.484 898.262 949.159 909.056 949.99C915.504 948.536 921.045 950.102 926.394 952.325C928.448 956.497 931.147 960.574 930.239 965.13C927.23 972.404 929.117 979.375 933.033 986.233C935.016 989.767 939.434 991.205 944.449 991.349C950.061 991.493 955.243 992.548 960.593 993.46C967.901 994.707 974.802 993.539 981.012 990.838C982.444 990.214 983.042 988.759 984.021 987.688C988.343 982.013 987.866 975.922 987.436 969.847C987.388 969.063 986.361 968.312 985.788 967.544C986.027 967.177 985.955 966.825 985.621 966.489C986.051 963.02 985.883 959.503 987.77 956.178C989.919 954.371 990.755 951.669 994.672 951.014C1000.88 949.99 1007.14 948.584 1013.66 949.799C1021.99 951.365 1030.3 953.044 1038.61 954.675C1042.01 956.769 1046.61 956.162 1050.53 957.137C1050.99 957.425 1051.53 957.536 1052.16 957.456C1056.22 958.272 1060.25 959.103 1064.31 959.919C1067.18 960.67 1069.99 961.565 1072.96 962.109C1073.79 962.269 1075.01 961.421 1076.06 961.022C1079.74 958.592 1084.97 959.023 1089.32 957.808C1093.28 956.705 1097.41 956.753 1101.47 957.744C1101.42 958.064 1101.57 958.32 1101.97 958.528C1102.69 962.317 1105.44 966.074 1101.81 969.894C1101.35 970.358 1102.43 971.461 1102.76 972.261C1103.19 973.284 1103.88 974.291 1103.98 975.314C1104.58 982.157 1107.01 988.456 1115.27 993.108C1115.23 993.476 1115.42 993.795 1115.82 994.051C1116.28 994.531 1116.73 995.01 1117.21 995.506C1117.71 997.296 1116.71 999.391 1119.55 1000.7C1120.55 1002.57 1122.32 1003.96 1125.04 1004.81C1125.07 1004.79 1125.09 1004.78 1125.11 1004.76C1126.02 1004.99 1126.52 1005.56 1127.29 1005.9L1127.38 1005.95C1128.48 1006.49 1129.56 1007.02 1130.65 1007.56C1131.3 1009.24 1131.59 1011.14 1134.16 1012.02C1138.18 1013.36 1141.81 1015.36 1146.61 1015.43C1147.25 1016.86 1147.28 1018.75 1148.69 1019.63C1151.03 1021.1 1151.48 1022.86 1152.48 1024.68C1155.35 1029.8 1159.07 1034.59 1166.19 1037.76C1167.17 1040.75 1169.1 1043.12 1174.38 1043.23C1175.7 1043.99 1177.03 1044.76 1178.37 1045.53C1181.64 1049.16 1187.13 1051.11 1191.98 1053.54C1192.77 1053.87 1193.53 1054.23 1194.27 1054.58C1194.82 1054.71 1195.37 1054.8 1195.95 1054.87C1195.97 1054.87 1195.97 1054.87 1195.97 1054.87C1198.76 1057.63 1202.39 1059.57 1207.31 1060.57C1209.7 1061.07 1211.71 1062.35 1213.98 1063.16C1219.37 1065.07 1224.25 1067.67 1230.29 1068.74C1232.32 1069.11 1234.09 1069.13 1235.49 1067.91C1236.71 1067.61 1238.19 1066.82 1239.05 1067.05C1243.5 1068.26 1248.73 1067.16 1252.83 1069.45C1254.07 1070.13 1256.75 1070.42 1258.18 1069.99C1262.27 1068.77 1265.66 1069.57 1269.34 1070.66C1271.63 1071.33 1274.28 1071.48 1276.76 1071.88C1278.82 1073.43 1281.54 1072.9 1284.09 1072.95C1286.65 1072.98 1289.44 1072.72 1291.74 1073.28C1296.46 1074.43 1301.29 1074.59 1306.18 1074.67C1309.24 1076.58 1313.01 1076.91 1316.98 1077.17C1326.89 1077.79 1336.32 1076.46 1345.83 1074.82C1350.44 1074.02 1354.28 1072.85 1357.41 1070.53C1358.06 1070.04 1358.7 1069.56 1359.35 1069.06C1362.83 1068.01 1365.32 1066.23 1367.42 1064.15C1373.84 1062.36 1377.28 1058.64 1380.79 1054.93C1383.39 1052.18 1386.12 1049.48 1388.79 1046.74C1389.51 1046.36 1390.22 1045.96 1390.94 1045.58L1390.77 1045.43C1390.8 1045.42 1390.82 1045.4 1390.87 1045.37C1390.89 1045.43 1390.92 1045.51 1390.94 1045.58C1391.71 1045.19 1392.45 1044.83 1393.19 1044.44L1392.78 1044.15C1392.8 1044.15 1392.8 1044.14 1392.83 1044.14C1392.95 1044.25 1393.07 1044.35 1393.19 1044.44C1394.38 1043.93 1395.57 1043.4 1396.77 1042.88L1396.41 1042.78C1396.43 1042.75 1396.43 1042.72 1396.43 1042.68C1396.62 1042.8 1396.77 1042.88 1396.77 1042.88C1398.77 1041.58 1400.78 1040.27 1402.79 1038.96C1404.6 1038.35 1405.89 1037.46 1406.25 1036.05C1406.68 1034.34 1407.06 1032.63 1407.59 1030.93C1408.68 1027.58 1407.92 1024.52 1404.65 1021.8C1401.38 1016.98 1398.08 1012.15 1394.81 1007.32C1392.95 1003.9 1392.56 1000.35 1392.68 996.753C1393.02 996.401 1393.14 996.033 1392.99 995.634C1393.73 993.779 1394.4 991.941 1395.22 990.102C1396.29 987.576 1399.42 986.825 1402.67 988.264C1403.19 988.504 1403.65 988.823 1404.12 989.111C1409.28 992.197 1414.97 992.276 1420.96 990.374C1421.89 990.166 1422.82 989.99 1423.71 989.735C1434.07 986.841 1443.41 982.556 1453.89 979.822C1454.92 979.455 1455.95 979.103 1456.95 978.751C1457.28 978.671 1457.59 978.575 1457.88 978.432C1457.88 978.448 1457.88 978.448 1457.88 978.464C1461.08 978.048 1464.31 977.616 1467.51 977.201C1469.58 977.52 1471.66 977.984 1473.76 978.112C1477.58 978.336 1481.43 978.352 1485.25 978.448C1487.04 979.311 1488.69 980.382 1490.65 981.022C1499.67 984.011 1509.18 986.201 1518.52 988.695C1524.51 990.278 1529.93 990.054 1535.11 987.64C1538.36 986.121 1541.75 984.97 1545.62 984.283C1547.39 983.963 1548.94 983.036 1550.59 982.38C1554.46 980.094 1559.4 978.4 1560.05 974.403V974.387C1562.05 973.092 1562.27 971.733 1560.31 970.342C1560.33 970.342 1560.33 970.342 1560.33 970.342C1560.09 967.656 1557.18 966.377 1554.15 965.162C1553.6 964.683 1553.05 964.203 1552.5 963.723C1550.71 960.334 1548.23 957.217 1544.5 954.579C1543.59 948.935 1545.55 944.267 1553.91 941.565C1555.06 941.198 1555.92 939.951 1556.2 939.023C1556.75 937.137 1556.68 935.282 1556.06 933.284C1554.58 928.52 1554.79 923.788 1561.17 920.27C1561.65 920.015 1561.89 919.583 1562.24 919.231C1564.15 918.688 1565.64 917.936 1564.8 916.338C1564.08 914.915 1562.96 913.572 1562.44 912.117C1561.72 910.23 1561.69 908.344 1563.18 906.49C1565.78 903.196 1565.8 903.068 1561.55 900.462C1559.74 899.343 1560.19 898.208 1560.38 896.961L1560.43 896.913C1562.32 896.753 1564.2 896.625 1566.04 896.386C1566.49 896.322 1567.02 895.826 1567.07 895.49C1567.12 895.203 1566.61 894.627 1566.28 894.595C1562.29 894.227 1560.6 891.526 1557.11 890.614C1556.61 890.486 1556.63 889.447 1556.42 888.84C1557.37 886.889 1558.3 884.939 1559.26 882.956C1556.87 882.109 1554.67 881.342 1552.48 880.558C1553.67 877.073 1551.93 874.195 1547.58 872.421C1543.95 870.934 1541.8 869.223 1541.59 866.33C1541.56 865.834 1539.8 865.387 1538.84 864.907C1535.57 863.724 1532.63 861.694 1528.33 863.644C1526.78 864.347 1525.35 863.468 1524.61 862.365C1523.99 861.438 1523.39 860.494 1522.79 859.551C1520.98 858.784 1517.61 859.711 1517.32 857.297C1517.7 856.801 1518.11 856.322 1518.52 855.826C1519.66 853.268 1519.16 852.341 1516.18 852.213C1515.05 852.165 1513.86 852.725 1512.69 853.013C1510.37 854.004 1508.06 855.011 1505.12 854.196C1501.18 853.748 1497.12 854.323 1493.2 853.172C1491.32 852.613 1488.76 852.933 1487.16 854.307C1485.25 854.355 1483.34 854.387 1481.43 854.419C1479.33 852.741 1477.42 854.228 1475.46 854.563C1470.08 853.604 1464.95 854.212 1459.96 855.634C1457.79 855.299 1455.66 854.883 1453.46 854.627C1447.71 853.94 1445.34 852.549 1444.29 848.968C1444.05 848.152 1443.77 847.017 1444.39 846.458C1447.04 844.06 1444.7 841.262 1445.96 838.896C1447.4 836.29 1449.93 833.972 1451.6 831.414C1452.2 830.519 1452.08 829.208 1451.55 828.28C1451.22 827.689 1449.62 827.305 1448.45 827.065C1446.32 826.618 1446.47 825.579 1446.61 824.475C1447.54 824.3 1448.52 824.204 1449.4 823.948C1450.81 823.532 1452.91 823.197 1453.34 822.461C1454.32 820.734 1454.66 818.8 1454.75 816.93C1454.78 816.674 1452.01 816.354 1450.53 816.05C1450.48 815.651 1450.26 815.315 1449.86 815.027C1451.22 812.629 1452.46 810.183 1454.01 807.849C1455.18 806.074 1455.28 804.683 1453.03 803.181C1452.15 802.589 1452.08 801.262 1452.13 800.287C1452.17 799.264 1453.58 798.017 1453.08 797.313C1451.41 795.011 1452.63 793.173 1454.01 791.142C1455.73 788.6 1457.45 785.994 1454.61 783.165C1454.06 782.605 1454.54 781.534 1454.73 780.703C1455.11 778.992 1455.59 777.297 1456.04 775.603C1456.66 775.219 1457.31 774.851 1457.93 774.468C1461.75 774.755 1465.55 775.187 1469.37 775.251C1471.18 775.267 1473.38 774.899 1474.77 774.164C1478.54 772.198 1482.19 770.183 1486.8 769.096C1487.23 769 1487.35 768.361 1487.61 767.977C1488.83 767.465 1490.05 766.954 1491.27 766.442C1494.42 765.947 1497.55 765.243 1500.75 765.035C1505.62 764.716 1508.82 762.749 1510.3 760.127C1512.86 755.667 1517.56 753.892 1524.11 753.125C1527.19 752.773 1530.43 751.894 1532.92 750.647C1537.38 748.409 1542.16 747.497 1547.56 747.913C1552.36 748.297 1557.13 748.856 1561.93 749.336C1563.18 749.752 1564.39 750.183 1565.61 750.615C1566.97 751.031 1568.31 751.254 1569.67 751.366C1578.55 752.693 1587.34 751.686 1596.04 749.991C1599.02 749.416 1601.65 745.771 1601.43 743.501C1601.24 741.662 1599.36 740.239 1596.44 740.127C1593.53 740.015 1590.62 740.143 1587.68 740.159V740.175C1587.68 740.175 1587.68 740.175 1587.68 740.159C1585.05 739.216 1582.42 738.257 1579.77 737.314C1578.7 736.53 1576.84 736.866 1575.79 736.035C1575.19 735.923 1574.54 735.859 1573.92 735.827C1571.68 734.596 1569.5 733.333 1567.19 732.182C1565.95 731.574 1564.42 730.743 1563.03 730.759C1555.6 730.839 1549.49 728.185 1542.83 726.682V726.666C1542.8 725.803 1542.33 724.78 1542.85 724.108C1545.77 720.559 1545.91 716.674 1546.67 712.789C1547.15 710.439 1546.67 708.553 1544.93 706.634C1542.83 704.348 1541.83 701.854 1542.4 699.152C1543.11 698.769 1543.83 698.401 1544.52 698.017C1544.55 698.017 1544.55 698.017 1544.55 698.017C1547.27 697.761 1550.76 698.561 1552.02 696.019C1552.95 694.132 1554.82 693.653 1557.28 694.308C1560 695.044 1561.58 694.452 1562.86 692.869C1563.94 691.558 1564.75 689.752 1567.5 689.912C1572.11 690.168 1573.68 688.857 1574.33 685.899C1574.73 684.124 1577.05 682.51 1578.6 680.847C1579.8 679.568 1581.87 678.401 1582.21 677.042C1582.73 674.772 1584.1 673.045 1586.17 671.303C1587.3 670.375 1587.34 668.873 1587.89 667.642C1587.89 667.626 1587.89 667.626 1587.89 667.626C1589.85 667.466 1591.4 667.018 1591.88 665.515C1592.33 664.124 1592.98 662.75 1593.55 661.359C1593.43 661.119 1593.27 660.943 1593.05 660.783C1593.24 660.687 1593.46 660.591 1593.67 660.495V660.479C1593.77 660.783 1593.72 661.071 1593.55 661.359C1595.56 660.415 1597.57 659.472 1599.57 658.529C1601.84 658.257 1603.2 657.33 1603.87 655.891C1604.37 655.364 1604.94 654.868 1605.37 654.308C1606.11 653.381 1606.78 653.845 1607.5 654.308C1607.45 655.827 1607.55 657.346 1607.31 658.849C1606.43 664.364 1609.29 668.601 1616.77 671.191C1618.63 671.83 1620.2 672.566 1620.4 673.941C1620.83 676.722 1624.03 676.547 1626.82 676.882C1625.6 678.129 1624.24 679.328 1623.21 680.639C1622.38 681.726 1621.02 683.133 1621.47 684.076C1622.64 686.586 1622.23 689.096 1622.43 691.606C1622.64 694.212 1624.89 695.411 1628.73 695.299C1630.5 697.41 1633.29 698.049 1636.68 697.873V697.857C1638.02 697.841 1639.36 697.825 1640.7 697.809C1642.53 698.369 1644.35 698.928 1646.16 699.472C1649.91 701.135 1654.5 701.87 1657.53 704.38C1658.3 705.004 1660.47 705.179 1661.9 705.068C1666.3 704.684 1670.24 702.446 1675.06 703.629C1678.93 701.87 1684.33 701.438 1686.26 697.937C1691.71 697.777 1697.46 698.353 1701.76 695.219C1706.23 696.434 1706.23 696.434 1707.8 694.1C1712.32 693.301 1716.16 691.303 1721.44 691.622C1724.76 691.83 1728.08 690.024 1730.25 688.153C1732.07 686.57 1732.52 684.588 1731.3 682.558C1730.97 681.982 1731.18 681.263 1731.14 680.591C1733.31 679.696 1733.24 678.225 1733.31 676.786C1734.45 675.907 1735.79 675.108 1736.68 674.116C1737.75 672.917 1738.42 671.543 1739.26 670.248C1739.88 669.816 1740.5 669.4 1741.12 668.969C1744.7 668.697 1745.46 666.555 1747.06 664.956C1749.64 664.492 1752.22 664.045 1754.8 663.597C1759.15 663.549 1763.23 663.181 1764.83 659.84C1767.53 659.184 1771.02 659.009 1772.81 657.762C1775.53 655.843 1778.11 654.18 1782.03 653.509C1782.82 653.365 1783.96 651.83 1783.65 651.495C1780.93 648.601 1784.87 647.21 1786.45 645.292C1788.45 644.236 1788.36 642.75 1788.36 641.263C1791.44 641.311 1793.78 640.591 1796 638.977C1800.49 635.699 1800.77 635.843 1808.51 636.323C1809.3 636.371 1810.37 635.955 1810.88 635.523C1811.45 635.044 1811.74 634.324 1811.74 633.701C1811.74 630.775 1811.45 627.85 1817.71 627.562C1818.47 627.53 1819.33 626.315 1819.78 625.548C1820.57 624.221 1821.79 623.197 1823.84 622.942C1826.49 622.622 1827.66 621.343 1828.64 619.952C1829.79 618.385 1830.7 616.739 1831.72 615.14C1831.63 615.012 1831.51 614.884 1831.39 614.772C1831.44 614.772 1831.49 614.756 1831.53 614.756L1831.72 615.14C1833.59 614.788 1836.33 614.836 1837.12 614.037C1839.92 611.175 1844.69 610.136 1848.23 607.978C1850.19 606.779 1851.79 603.885 1855.94 606.091C1856.28 606.267 1857.71 605.755 1858.4 605.372C1860.62 604.125 1862.75 602.814 1864.92 601.519C1867.76 599.728 1867.88 597.122 1868.19 594.916C1868.45 593.046 1869.31 592.166 1871.54 591.527C1873.64 590.919 1875.76 590.344 1877.84 589.72C1878.39 589.56 1879.32 589.097 1879.25 588.985C1877.74 586.507 1881.23 583.629 1878.22 581.391C1875.43 579.297 1872.54 577.362 1871.77 574.421C1871.63 573.909 1870.51 573.238 1869.72 573.142C1864.01 572.422 1863.32 569.768 1862.53 566.475C1861.94 564.045 1858.9 561.919 1857.16 559.585C1855.87 557.842 1854.03 556.803 1851.09 556.883C1846.03 557.043 1842.42 555.396 1839.46 552.854C1839.53 551.191 1839.58 549.545 1839.63 547.882C1843.83 546.427 1843.9 546.267 1841.44 543.645V543.629C1841.52 543.214 1841.49 542.814 1841.4 542.398C1842.71 541.103 1844.02 539.809 1845.34 538.514C1847.89 537.682 1849.13 536.323 1849.13 534.421C1849.13 533.142 1849.23 531.863 1849.3 530.568C1851.57 529.513 1851.02 527.898 1851.12 526.395C1851.57 519.585 1854.96 516.787 1864.9 514.693C1867 514.245 1868.93 513.414 1870.87 512.694C1871.7 512.375 1872.3 511.783 1873.14 511.431C1875.86 510.264 1878.49 508.873 1881.47 508.138C1882.71 507.818 1884.72 509.177 1886.49 509.353C1888.95 509.609 1891.12 508.809 1891.91 507.179C1892.98 504.909 1893.82 502.558 1894.51 500.224C1895.39 497.315 1895.73 497.043 1900 496.787C1902.92 496.611 1905.83 496.499 1908.7 496.148C1912.54 495.7 1914.79 493.014 1914.26 489.801C1917.65 489.657 1919.66 488.458 1919.97 486.204C1920.21 484.333 1919.13 482.83 1916.46 481.983ZM1793.37 291.272C1793.3 291.193 1793.25 291.097 1793.18 291.001C1793.3 290.841 1793.42 290.665 1793.63 290.537C1793.42 290.793 1793.35 291.033 1793.37 291.272ZM1742.88 284.19C1742.26 284.19 1741.64 284.222 1741.05 284.302C1737.87 284.75 1734.53 284.958 1731.54 285.741C1727.05 286.924 1722.11 287.771 1719.22 290.761C1717.59 290.825 1715.99 290.953 1714.37 290.921C1709.36 290.841 1709.09 293.271 1710 295.253C1711.98 299.618 1717.71 301.44 1722.87 303.615C1723.37 303.822 1724.19 303.886 1724.76 303.774C1727.51 303.199 1730.32 302.687 1732.93 301.856C1733.81 301.584 1734.77 300.353 1734.53 299.778C1733.33 297.028 1736.1 296.308 1738.87 295.637C1742.17 294.822 1745.56 294.15 1748.9 293.415C1750.03 292.631 1751.84 292.903 1753.03 292.248C1753.63 292.264 1754.23 292.232 1754.8 292.168C1758.22 291.992 1761.94 292.903 1764.86 290.953H1764.88L1765.64 290.969L1766.41 290.921C1767.17 291.736 1767.91 291.816 1768.63 290.905C1775.05 292.104 1781.5 293.271 1788.26 292.136C1789.57 292.136 1790.86 292.152 1792.18 292.168C1792.8 292.216 1793.42 292.248 1794.04 292.296C1794.71 292.695 1795.38 293.095 1796.05 293.511C1800.65 294.95 1805.26 296.42 1809.94 297.779C1810.64 297.987 1811.76 297.683 1812.62 297.507C1816.58 296.628 1816.54 296.628 1818.57 298.563C1819.23 299.218 1820.24 300.321 1820.88 300.257C1822.67 300.081 1824.54 299.57 1825.97 298.85C1826.73 298.451 1826.61 297.316 1826.92 296.532C1827.16 295.941 1827.21 295.253 1827.74 294.806C1828.81 293.846 1828.36 293.191 1827.07 292.711C1825.68 292.2 1824.68 292.647 1823.94 293.527C1823.39 294.166 1823.72 295.573 1821.67 295.045C1821 294.87 1820.21 294.038 1820.26 293.527C1820.69 287.787 1817.35 283.982 1808.49 282.879C1808.15 282.847 1807.8 282.831 1807.56 282.703C1801.73 279.746 1796.81 280.977 1792.3 284.174C1791.29 281.153 1787.42 279.778 1783.84 279.57C1778.76 279.282 1773.43 279.874 1768.39 280.609C1760.75 281.728 1753.2 283.023 1745.32 283.183C1744.48 283.215 1743.7 283.838 1742.88 284.19Z" fill="#040606"/>
</svg>
